<?xml version="1.0" encoding="UTF-8"?>
<!DOCTYPE svg PUBLIC "-//W3C//DTD SVG 1.1//EN" "http://www.w3.org/Graphics/SVG/1.1/DTD/svg11.dtd">
<svg version="1.1" xmlns="http://www.w3.org/2000/svg" xmlns:xlink="http://www.w3.org/1999/xlink" x="0" y="0" width="877.03" height="187.31" viewBox="0, 0, 877.03, 187.31">
  <g id="Ebene_1" transform="translate(-274.97, -419.69)">
    <path d="M1144.9,509.52 C1147.34,509.86 1149.71,510.37 1152,510.99 L1152,472.7 C1148.52,472.22 1144.87,472.01 1141.86,472.26 C1125.79,473.63 1117.38,478.99 1107.39,489.8 L1107.39,475.32 L1069.65,475.32 L1069.65,587.52 L1107.39,587.52 L1107.39,518.1 C1117.09,511 1130.61,507.51 1144.9,509.51 L1144.9,509.51 z M1055.37,541.97 C1055.57,539.93 1055.98,532.39 1055.98,528.72 C1055.98,498.55 1028.44,472.05 988.66,472.05 C948.88,472.05 921.39,497.1 920.23,529.16 C920.19,529.41 920.16,531.45 920.18,531.6 C920.49,563.14 948.42,590.27 988.67,590.27 C1018.6,590.27 1041.59,574.57 1051.14,553.94 L1012.49,549.99 C1007.69,557.38 999.62,562.55 988.46,562.55 C974.39,562.55 965.22,553.37 961.54,541.96 L1055.37,541.96 z M1016.2,519.14 L961.53,519.14 C965.2,507.73 974.38,499.78 988.46,499.78 C1003.35,499.78 1012.74,507.73 1016.2,519.14 L1016.2,519.14 z M885.98,590.28 C894.95,590.28 907.77,588.63 913.06,586.73 L913.06,556.98 C909.93,558.48 899.6,559.88 894.34,559.88 C885.57,559.88 876.8,557.49 876.8,544.23 L876.8,504.04 L913.06,504.04 L913.06,475.28 L876.8,475.28 L876.8,436.14 L839.06,436.14 L839.06,475.28 L815.02,475.28 L815.02,504.04 L839.06,504.04 L839.06,554.22 C839.06,583.8 860.68,590.27 885.98,590.27 L885.98,590.27 z M780.05,590.28 C789.02,590.28 801.85,588.63 807.13,586.73 L807.13,556.98 C804,558.48 793.67,559.88 788.41,559.88 C779.64,559.88 770.87,557.49 770.87,544.23 L770.87,504.04 L807.13,504.04 L807.13,475.28 L770.87,475.28 L770.87,436.14 L733.13,436.14 L733.13,475.28 L709.09,475.28 L709.09,504.04 L733.13,504.04 L733.13,554.22 C733.13,583.8 754.75,590.27 780.05,590.27 L780.05,590.27 z M710.61,561.14 C708.18,562.69 705.41,562.95 701.88,562.95 C701.84,562.95 701.8,562.95 701.75,562.95 C701.75,562.95 701.74,562.95 701.73,562.95 C695,562.95 692.67,558.02 692.67,550.27 L692.67,505.49 C692.67,483.68 667.4,472.06 632.54,472.06 C610.25,472.06 596.4,473.51 577.7,479.71 L584.62,504.32 C600.13,500.06 611.28,498.09 628.6,498.09 C647.64,498.09 655.33,500.44 655.33,508.1 L655.33,515.27 L638.54,515.27 C633.18,515.46 626.35,515.6 617.66,516.09 C588.1,517.93 569.04,527.91 569.04,550.95 C569.04,577.04 590.75,590.29 611.54,590.29 C632.33,590.29 646.4,582.75 656.79,572.96 C660.32,582.76 668.62,589.67 682.3,590.19 C684.07,590.43 686.09,590.55 688.57,590.55 C695.11,590.55 706.11,588.49 710.61,585.91 L710.61,561.14 L710.61,561.14 z M654.96,551.15 C645.18,561.55 633.35,564.6 623.16,564.6 C612.97,564.6 607.06,557.77 607.06,550.43 C607.06,543.09 612.16,537.69 628.26,536.06 C633.24,535.56 637.05,535.63 642.21,535.56 L654.96,535.56 L654.96,551.14 L654.96,551.14 z M669.68,450.29 C669.68,442.6 663.44,436.36 655.75,436.36 L651.83,436.36 C644.14,436.36 637.9,442.6 637.9,450.29 C637.9,457.98 644.14,464.22 651.83,464.22 L655.75,464.22 C663.44,464.22 669.68,457.98 669.68,450.29 L669.68,450.29 z M630.27,450.29 C630.27,442.6 624.03,436.36 616.34,436.36 L612.42,436.36 C604.73,436.36 598.49,442.6 598.49,450.29 C598.49,457.98 604.73,464.22 612.42,464.22 L616.34,464.22 C624.03,464.22 630.27,457.98 630.27,450.29 L630.27,450.29 z M514.22,587.52 L551.51,587.52 L551.51,436.36 L514.22,436.36 L514.22,587.52 L514.22,587.52 z M472.19,508.37 C482.59,502.66 489.53,492.46 489.53,479.2 C489.53,454.72 470.97,436.25 435.27,436.25 L337.15,436.25 L337.15,587.52 L432.01,587.52 C474.24,587.52 498.92,574.87 498.92,542.64 C498.92,523.87 486.88,512.86 472.2,508.37 L472.2,508.37 z M446.87,480.21 C446.87,491.84 438.71,495.51 421.98,495.51 L378.35,495.51 L378.35,465.11 L421.78,465.11 C438.92,465.11 446.87,468.78 446.87,480.21 L446.87,480.21 z M454.85,541.42 C454.85,553.05 446.69,556.72 429.96,556.72 L378.35,556.72 L378.35,526.33 L429.76,526.33 C446.9,526.33 454.85,530 454.85,541.43 L454.85,541.43 z" fill="#000000"/>
    <path d="M274.97,607 L278.22,607 L278.22,419.69 L274.97,419.69 L274.97,607 L274.97,607 z" fill="#000000"/>
  </g>
</svg>
