<?xml version="1.0" encoding="UTF-8" standalone="no"?><!DOCTYPE svg PUBLIC "-//W3C//DTD SVG 1.1//EN" "http://www.w3.org/Graphics/SVG/1.1/DTD/svg11.dtd"><svg width="100%" height="100%" viewBox="0 0 4058 573" version="1.1" xmlns="http://www.w3.org/2000/svg" xmlns:xlink="http://www.w3.org/1999/xlink" xml:space="preserve" xmlns:serif="http://www.serif.com/" style="fill-rule:evenodd;clip-rule:evenodd;stroke-linejoin:round;stroke-miterlimit:1.41421;"><g><g><path d="M157.875,555.749c132.541,27.458 289.874,-66.333 351.333,-209.5c61.458,-143.166 3.833,-281.503 -128.75,-308.957c-132.583,-27.459 -289.883,66.345 -351.35,209.499c-61.466,143.167 -3.825,281.5 128.767,308.958Z" style="fill:#e71835;fill-rule:nonzero;"/><path d="M157.875,555.749l-1.125,2.583c67.125,13.917 140.5,-2.916 204.749,-41.208c64.209,-38.333 119.417,-98.125 150.417,-170.333c31,-72.208 32,-143.25 8.458,-199.725c-23.541,-56.487 -71.666,-98.479 -138.791,-112.379c-67.167,-13.904 -140.542,2.917 -204.75,41.23c-64.254,38.312 -119.437,98.12 -150.441,170.333c-31,72.208 -31.988,143.249 -8.446,199.708c23.529,56.5 71.662,98.499 138.804,112.374l1.125,-2.583l1.083,-2.583c-65.425,-13.584 -112.4,-54.458 -135.466,-109.792c-23.059,-55.333 -22.138,-125.041 8.329,-195.999c30.466,-70.963 84.666,-129.646 147.595,-167.163c62.917,-37.52 134.458,-53.87 199.917,-40.32c65.458,13.554 112.416,54.454 135.499,109.783c23.042,55.325 22.125,125.033 -8.333,195.991c-30.458,70.958 -84.666,129.667 -147.583,167.167c-62.958,37.499 -134.5,53.874 -199.958,40.333l-1.083,2.583Z" style="fill:#e71835;fill-rule:nonzero;"/><path d="M157.875,555.749l-1.125,2.583c67.125,13.917 140.5,-2.916 204.749,-41.208c64.209,-38.333 119.417,-98.125 150.417,-170.333c31,-72.208 32,-143.25 8.458,-199.725c-23.541,-56.487 -71.666,-98.479 -138.791,-112.379c-67.167,-13.904 -140.542,2.917 -204.75,41.23c-64.254,38.312 -119.437,98.12 -150.441,170.333c-31,72.208 -31.988,143.249 -8.446,199.708c23.529,56.5 71.662,98.499 138.804,112.374l1.125,-2.583l1.083,-2.583c-65.425,-13.584 -112.4,-54.458 -135.466,-109.792c-23.059,-55.333 -22.138,-125.041 8.329,-195.999c30.466,-70.963 84.666,-129.646 147.595,-167.163c62.917,-37.52 134.458,-53.87 199.917,-40.32c65.458,13.554 112.416,54.454 135.499,109.783c23.042,55.325 22.125,125.033 -8.333,195.991c-30.458,70.958 -84.666,129.667 -147.583,167.167c-62.958,37.499 -134.5,53.874 -199.958,40.333l-1.083,2.583Z" style="fill:#e71835;fill-rule:nonzero;"/><path d="M81.85,440.249c34.362,-2.458 71.037,-28 84.15,-33.125c15.25,-5.958 19.083,-2.458 25.958,-5c7.917,-2.916 11.542,-10.333 20.167,-11.666c8.625,-1.334 18.541,2 18.541,2c0,0 -2.625,-64 2,-102.5c4.625,-38.542 32.834,-81.917 32.834,-81.917c0,0 -9.917,-5.708 -19.209,-1.375c-8.791,4.084 -16.958,15.25 -16.958,15.25c0,0 -0.792,-7.458 1.833,-17.208c1.75,-6.417 7.459,-12.333 7.459,-12.333c0,0 -16.292,-5 -32.167,0c-15.917,5 -33.5,25.541 -33.5,25.541c0,0 1.667,-38.475 30.5,-52.77c28.875,-14.292 50.125,-3.896 50.125,-3.896c0,0 5.292,-18.829 15.25,-28.867c14.292,-14.454 34.792,-12.971 34.792,-12.971c0,0 -10.334,7.788 -11.667,17.059c-1.333,9.275 3.917,12.87 3.917,12.87c0,0 14.208,-17.95 34.458,-18.741c26.916,-1.059 44,19.004 44,19.004c0,0 -9.917,-3.454 -19.209,-3.454c-9.25,0 -14.958,5.441 -14.958,5.441c0,0 31.958,3.034 46.083,22.242c14.792,20.042 10.625,48.083 10.625,48.083c0,0 -7.041,-26.083 -20.666,-35.375c-13.667,-9.258 -33.375,-9.395 -33.375,-9.395c0,0 28.875,14.27 28.875,50.437c0,36.167 -19.625,60.667 -19.625,60.667c0,0 12.291,-49.792 -1.959,-68.25c-20.875,-27.084 -57.499,-21.625 -76.208,12.125c-21.375,38.541 -17.708,85.666 -15.708,109.208c2,23.583 10.625,51.791 10.625,51.791c0,0 9.708,-2.041 18,1.542c5.792,2.458 7.417,10.625 15.375,13.292c7.958,2.666 4.791,-1.959 23.041,-0.417c2.709,0.25 54.334,30.333 57.334,32.708c-42.709,28.459 -133.042,32.084 -181.875,28.667c-29.375,-2.042 -98.225,-14.833 -118.858,-28.667Z" style="fill:#fff;fill-rule:nonzero;"/></g><text x="764.845px" y="545.76px" style="font-family:'HelveticaNeueLTStd-Bd', 'Helvetica Neue LT Std', sans-serif;font-weight:700;font-size:713.484px;fill:#e71835;">b<tspan x="1170.82px 1324.93px 1704.5px 2084.08px 2305.26px 2526.44px 2906.01px 3087.95px 3256.33px 3662.3px " y="545.76px 545.76px 545.76px 545.76px 545.76px 545.76px 545.76px 545.76px 545.76px 545.76px ">laetter.de</tspan></text></g></svg>