<?xml version="1.0" encoding="UTF-8"?><svg id="Ebene_2" xmlns="http://www.w3.org/2000/svg" xmlns:xlink="http://www.w3.org/1999/xlink" viewBox="0 0 104.8 110.64"><defs><style>.cls-1{clip-path:url(#clippath);}.cls-2,.cls-3{fill:none;}.cls-2,.cls-4,.cls-5{stroke-width:0px;}.cls-3{stroke:#fff;stroke-width:2px;}.cls-6{clip-path:url(#clippath-1);}.cls-7{clip-path:url(#clippath-3);}.cls-8{clip-path:url(#clippath-2);}.cls-4{fill:#991915;}.cls-5{fill:#fff;}</style><clipPath id="clippath"><rect class="cls-2" width="104.8" height="110.64"/></clipPath><clipPath id="clippath-1"><path class="cls-2" d="m52.42,28.26l-13.03.68c-.4.02-.71.35-.69.74l.08,1.62.06,1.05h0c.21.67.74,1.21,1.42,1.47l2.16-.11c.64-.33,1.11-.91,1.25-1.59,0,0,0,0,0-.01-.05-.17-.08-.34-.1-.52,0-.18,0-.36.04-.54.05.17.09.35.1.53,0,.18,0,.36-.04.53,0,0,0,0,0,.01.21.66.74,1.19,1.41,1.46l2.16-.11c.65-.33,1.11-.91,1.25-1.59,0,0,0,0,0-.01-.05-.17-.09-.34-.1-.52,0-.18,0-.36.04-.54.05.17.09.35.1.53,0,.18,0,.36-.04.53,0,0,0,0,0,.01.21.66.74,1.19,1.41,1.46l2.16-.11c.65-.33,1.12-.92,1.26-1.6,0,0,0,0,0-.01l-.05-1.02-.09-1.64c-.02-.38-.34-.67-.73-.67h-.04"/></clipPath><clipPath id="clippath-2"><path class="cls-2" d="m42.52,24.21c-.09-1.67,1.25-3.1,2.98-3.19,1.73-.09,3.21,1.19,3.3,2.86.09,1.67-1.25,3.1-2.98,3.19-.06,0-.11,0-.17,0-1.66,0-3.04-1.25-3.13-2.87m2.9-4.74c-2.61.14-4.63,2.3-4.5,4.82.13,2.52,2.37,4.46,4.98,4.33,2.61-.14,4.63-2.3,4.5-4.82-.13-2.44-2.22-4.33-4.72-4.33-.09,0-.17,0-.26,0"/></clipPath><clipPath id="clippath-3"><rect class="cls-2" width="104.8" height="110.64"/></clipPath></defs><g id="Ebene_1-2"><g class="cls-1"><path class="cls-5" d="m24.04,89.44c4.99-.36,10.32-4.06,12.22-4.81,2.21-.86,2.77-.36,3.77-.73,1.15-.42,1.68-1.5,2.93-1.69,1.25-.19,2.69.29,2.69.29,0,0-.38-9.29.29-14.88.67-5.59,4.77-11.89,4.77-11.89,0,0-1.44-.83-2.79-.2-1.28.6-2.46,2.21-2.46,2.21,0,0-.12-1.08.27-2.5.25-.93,1.08-1.79,1.08-1.79,0,0-2.36-.73-4.67,0s-4.87,3.71-4.87,3.71c0,0,.24-5.59,4.43-7.66,4.19-2.08,7.28-.57,7.28-.57,0,0,.77-2.73,2.21-4.19,2.08-2.1,5.06-1.88,5.06-1.88,0,0-1.5,1.13-1.69,2.48-.19,1.35.57,1.87.57,1.87,0,0,2.06-2.61,5-2.72,3.91-.15,6.39,2.76,6.39,2.76,0,0-1.44-.5-2.79-.5s-2.17.79-2.17.79c0,0,4.64.44,6.69,3.23,2.14,2.91,1.54,6.98,1.54,6.98,0,0-1.02-3.79-3-5.13-1.98-1.35-4.85-1.37-4.85-1.37,0,0,4.19,2.07,4.19,7.32s-2.85,8.81-2.85,8.81c0,0,1.78-7.23-.29-9.91-3.03-3.93-8.35-3.14-11.07,1.76-3.1,5.6-2.57,12.44-2.28,15.86.29,3.42,1.54,7.52,1.54,7.52,0,0,1.41-.29,2.61.22.85.36,1.08,1.55,2.24,1.93,1.15.39.69-.28,3.34-.06.39.03,7.89,4.41,8.33,4.75-6.21,4.13-19.32,4.66-26.41,4.17-4.27-.3-14.26-2.15-17.26-4.17"/><path class="cls-4" d="m42.91,32.4s0,.01,0,.01c0,0,0-.01,0-.01h0Z"/><path class="cls-4" d="m42.84,31.01c-.05.23-.07.46-.06.71.01.24.06.46.13.68h0c.05-.22.07-.46.05-.69-.01-.24-.06-.47-.13-.7"/><path class="cls-4" d="m49.26,32.07s0,.01,0,.01c0,0,0-.01,0-.01h0Z"/><path class="cls-4" d="m49.26,32.07h0c.04-.22.07-.46.05-.69-.01-.24-.06-.47-.13-.7-.05.23-.07.47-.06.71.01.24.06.46.12.68"/></g><g class="cls-6"><rect class="cls-5" x="38.7" y="28.17" width="14.72" height="5.35" transform="translate(-1.55 2.45) rotate(-3)"/></g><g class="cls-8"><rect class="cls-5" x="40.9" y="18.95" width="9.5" height="9.5" transform="translate(-1.18 2.42) rotate(-3)"/></g><g class="cls-7"><path class="cls-4" d="m40.76,30.28c0,.14-.11.26-.25.27-.15,0-.27-.1-.28-.24,0-.14.11-.26.25-.27.15,0,.27.1.28.24"/><path class="cls-4" d="m43.5,30.14c0,.14-.11.26-.25.27-.15,0-.27-.1-.28-.24,0-.14.11-.26.25-.27.15,0,.27.1.28.24"/><path class="cls-4" d="m46.24,30c0,.14-.11.26-.25.27-.15,0-.27-.1-.28-.24,0-.14.11-.26.25-.27.15,0,.27.1.28.24"/><path class="cls-4" d="m48.98,29.85c0,.14-.11.26-.25.27-.15,0-.27-.1-.28-.24,0-.14.11-.26.25-.27.15,0,.27.1.28.24"/><path class="cls-4" d="m51.72,29.71c0,.14-.11.26-.25.27-.15,0-.27-.1-.28-.24,0-.14.11-.26.25-.27.15,0,.27.1.28.24"/><path class="cls-5" d="m45.94,19.05c.01.29-.21.53-.51.54-.29.01-.55-.2-.56-.49-.01-.28.21-.53.51-.54.3-.01.55.2.56.49"/><path class="cls-5" d="m45.88,18.02c.01.29-.21.53-.51.54-.29.01-.55-.2-.56-.49-.01-.28.21-.53.51-.54.3-.01.55.2.56.49"/><path class="cls-5" d="m45.83,16.99c.01.29-.21.53-.51.54-.29.01-.55-.2-.56-.49-.01-.28.21-.53.51-.54.3-.01.55.2.56.49"/><path class="cls-5" d="m45.77,15.96c.01.29-.21.53-.51.54-.29.01-.55-.2-.56-.49-.01-.28.21-.53.51-.54.3-.01.55.2.56.49"/><path class="cls-5" d="m45.72,14.93c.01.29-.21.53-.51.54-.29.01-.55-.2-.56-.49-.01-.28.21-.53.51-.54.3-.01.55.2.56.49"/><path class="cls-5" d="m45.67,13.9c.01.29-.21.53-.51.54-.29.01-.55-.2-.56-.49-.01-.28.21-.53.51-.54.3-.01.55.2.56.49"/><path class="cls-5" d="m45.61,12.87c.01.29-.21.53-.51.54-.29.01-.55-.2-.56-.49-.01-.28.21-.53.51-.54.3-.01.55.2.56.49"/><path class="cls-5" d="m45.56,11.83c.01.29-.21.53-.51.54-.29.01-.55-.2-.56-.49-.01-.28.21-.53.51-.54.3-.01.55.2.56.49"/><path class="cls-5" d="m45.5,10.8c.01.29-.21.53-.51.54-.29.01-.55-.2-.56-.49-.01-.28.21-.53.51-.54.3-.01.55.2.56.49"/><path class="cls-5" d="m45.45,9.77c.01.29-.21.53-.51.54-.29.01-.55-.2-.56-.49-.01-.28.21-.53.51-.54.3-.01.55.2.56.49"/><path class="cls-5" d="m45.39,8.74c.01.29-.21.53-.51.54-.29.01-.55-.2-.56-.49-.01-.28.21-.53.51-.54.3-.01.55.2.56.49"/><path class="cls-5" d="m45.34,7.71c.01.29-.21.53-.51.54-.29.01-.55-.2-.56-.49-.01-.28.21-.53.51-.54.3-.01.55.2.56.49"/><path class="cls-5" d="m45.29,6.68c.01.29-.21.53-.51.54-.29.01-.55-.2-.56-.49-.01-.28.21-.53.51-.54.3-.01.55.2.56.49"/><path class="cls-5" d="m45.23,5.65c.01.29-.21.53-.51.54-.29.01-.55-.2-.56-.49-.01-.28.21-.53.51-.54.3-.01.55.2.56.49"/><path class="cls-5" d="m45.18,4.61c.01.29-.21.53-.51.54-.29.01-.55-.2-.56-.49-.01-.28.21-.53.51-.54.3-.01.55.2.56.49"/><path class="cls-5" d="m45.12,3.58c.01.29-.21.53-.51.54-.29.01-.55-.2-.56-.49-.01-.28.21-.53.51-.54.3-.01.55.2.56.49"/><path class="cls-5" d="m45.07,2.55c.01.29-.21.53-.51.54-.29.01-.55-.2-.56-.49-.01-.28.21-.53.51-.54.3-.01.55.2.56.49"/><path class="cls-5" d="m45.02,1.52c.01.29-.21.53-.51.54-.29.01-.55-.2-.56-.49-.01-.28.21-.53.51-.54.3-.01.55.2.56.49"/><path class="cls-5" d="m44.96.49c.01.29-.21.53-.51.54-.29.01-.55-.2-.56-.49-.01-.28.21-.53.51-.54.3-.01.55.2.56.49"/><path class="cls-3" d="m49.67,104.29c19.32-1.01,34.17-17.5,33.15-36.82-1.01-19.32-17.5-34.17-36.82-33.15-19.32,1.01-34.17,17.5-33.15,36.82,1.01,19.32,17.5,34.17,36.82,33.15Z"/><path class="cls-5" d="m37.41,90.77c.14-.28.21-.64.15-1.18-.28,0-.57.01-.86.02-.06.81.08,1.35.71,1.17"/><path class="cls-5" d="m53.52,89.98c-.1-1.2.64-1.31.99-1.92,0-.31-.3-.21-.35-.47-.39.67-1.31-.05-2.04.51-.14,1.67.57,2.25,1.41,1.87"/><path class="cls-5" d="m37.02,88.18c-.17,0-.34,0-.51.01-.02.52.16.75.53.7,0-.24,0-.48-.01-.71"/><path class="cls-5" d="m50.22,87.92c-.12-.15.07.1,0,0"/><path class="cls-5" d="m14.04,88.39c.55-.11.99-.38.83-1.44-.81-.22-.95.43-.83,1.44"/><path class="cls-5" d="m34.08,87.05c-.04-.18-.01-.47-.18-.47,0,.31-.3.22-.34.48.25.09.3.28.52-.01"/><path class="cls-5" d="m32.32,84.96c-.17,0-.34,0-.51.01-.02.59.28.74.53.94,0-.32-.01-.63-.02-.95"/><path class="cls-5" d="m45.7,84.93c.1-.86-.14-1.26-.38-1.65-.6.44-1.35.67-1.16,2.16.71.09,1.09-.24,1.53-.5"/><path class="cls-5" d="m15.99,83.15c-.78-.11-1.11.37-1,1.44.85.2,1.18-.28,1-1.44"/><path class="cls-5" d="m44.8,82.58c-.51-.34-.48,1.07.01.71,0-.24,0-.47-.01-.71"/><path class="cls-5" d="m53.89,82.4c.23.07.33.33.69.23.06-.89-.52-.72-.69-.23"/><path class="cls-5" d="m26.45,82.7c.08.1-.11-.15,0,0"/><path class="cls-5" d="m41.14,79.57c-.65-.27-1.21-1.15-2.06-.43,0,.47.02.94.03,1.42,1.03-.43.57,1.29,1.23,1.4.56-.41.83-1.21.81-2.39"/><path class="cls-5" d="m56.77,80.92c.16-.72-.39-.41-.7-.46,0,.24,0,.47.01.71.3.01.53-.06.68-.25"/><path class="cls-5" d="m41.51,81.22c-.12-.15.07.1,0,0"/><path class="cls-5" d="m20.59,81.63c-.02-1.4-1.17-.21-.34.24.03-.18.14-.28.34-.24"/><path class="cls-5" d="m48.53,80.61c-.23-.32-1.03-.39-1.02.26.22.32,1.03.39,1.02-.26"/><path class="cls-5" d="m24.69,80.61c-.29,0-.43.19-.5.48.27-.03.59.02.5-.48"/><path class="cls-5" d="m17.83,80.74c.13-.06.34-.01.34-.25-.13.06-.34.02-.34.25"/><path class="cls-5" d="m36.28,76.83c-.11,0-.23,0-.34,0,0,.16,0,.32,0,.47.12,0,.23,0,.34,0,0-.16,0-.31,0-.47"/><path class="cls-5" d="m45.65,73.8c-.05.32-.24.45-.15.95.17,0,.34,0,.51-.01.04-.54-.06-.89-.36-.94"/><path class="cls-5" d="m20.1,74.07c-.12-.15.07.1,0,0"/><path class="cls-5" d="m25.05,72.55c-.58-.6-1.35.1-1.35.97.49.48,1.54.16,1.35-.97"/><path class="cls-5" d="m18.35,72.21c-.17,0-.34,0-.52,0,0,.24,0,.47.01.71.17,0,.35,0,.52-.01,0-.24,0-.47-.01-.71"/><path class="cls-5" d="m26,68.51c-.52-.52-1.35.1-1.35.97.41.78,1.52.34,1.35-.97"/><path class="cls-5" d="m19.99,68.62c0-.47-.02-.95-.03-1.42-.7-.09-1.09.24-1.53.51.02.63-.07,1.4.37,1.41.25-.36.74-.39,1.19-.5"/><path class="cls-5" d="m49.45,66.15c-.04.63.25.77.7.7.16-.79-.25-.77-.7-.7"/><path class="cls-5" d="m33.32,65.99c-.22-.93-.18.94,0,0"/><path class="cls-5" d="m20.74,63.16c-.55.2-1.13.35-1.53.74-.04.87.22,1.31.38,1.89,1.34.49,1.66-1.41,1.15-2.63"/><path class="cls-5" d="m31.57,63.9c-.17,0-.34,0-.52,0,0,.23.01.47.01.71.11,0,.23,0,.34,0,0-.3.21-.33.16-.71"/><path class="cls-5" d="m53.67,62.99c-.3.41.07.93.53.94.04-.62-.08-1.02-.53-.94"/><path class="cls-5" d="m44.74,62.45c0,.32.01.63.02.95.68.15.54-1.01-.02-.95"/><path class="cls-5" d="m24.51,62.85c-.2-.19-.46-.3-.86-.22.05.45-.18.53-.15.95.41.52,1.14.15,1.01-.74"/><path class="cls-5" d="m32.05,62.7c.08.1-.11-.15,0,0"/><path class="cls-5" d="m39.93,62.08c-.11,0-.23,0-.34,0,0,.15,0,.31,0,.47.11,0,.23,0,.34,0,0-.15,0-.31,0-.47"/><path class="cls-5" d="m42.8,59.65c-.03.45.2.52.19.94.28,0,.57-.01.86-.02.09-.95-.47-.94-1.05-.93"/><path class="cls-5" d="m51.67,56.87c-.67.25-1-.51-1.37.03,0,.74.55.67.38,1.65.88.17,1.17-.44.99-1.68"/><path class="cls-5" d="m25.11,58.58c.12-.92-.84-.9-.69.01.35.39.22-.03.69-.01"/><path class="cls-5" d="m40.88,58.03c-.12-.15.07.1,0,0"/><path class="cls-5" d="m16.19,58.52c.07.1-.11-.15,0,0"/><path class="cls-5" d="m38.47,57.13c-.51-.34-.48,1.07.01.71,0-.24,0-.47-.01-.71"/><path class="cls-5" d="m38.81,57.36c.07.1-.12-.15,0,0"/><path class="cls-5" d="m27.84,57.58c.15-1.38-.75-.09,0,0"/><path class="cls-5" d="m41.03,56.84c.13-.06.34-.01.34-.24-.13.06-.34.01-.34.24"/><path class="cls-5" d="m33.65,56.75c-.22-.93-.18.94,0,0"/><path class="cls-5" d="m16.34,57.33c.13-.06.34-.01.34-.24-.13.06-.34.01-.34.24"/><path class="cls-5" d="m54.87,54.2c-.17,0-.34,0-.52,0,0,.24,0,.47.01.71.17,0,.34,0,.52-.01,0-.24,0-.47-.01-.71"/><path class="cls-5" d="m31.9,54.65c-.11,0-.23,0-.34,0,0,.3-.22.33-.16.72.11,0,.23,0,.34,0,0-.3.21-.33.16-.72"/><path class="cls-5" d="m39.43,54.03c.4-.8-.57.59,0,0"/><path class="cls-5" d="m37.52,52.65c.11-1.44-.79-.14,0,0"/><path class="cls-5" d="m22.57,51.76c-.51-.34-.48,1.07.01.71,0-.24,0-.47-.01-.71"/><path class="cls-5" d="m55.32,50.64c-.51-.34-.48,1.07.01.71,0-.24,0-.48-.01-.71"/><path class="cls-5" d="m44.87,51.32c.4-.8-.56.58,0,0"/><path class="cls-5" d="m20.18,51.81c.4-.8-.56.58,0,0"/><path class="cls-5" d="m51.55,50.95c.23,0,.46,0,.69-.01.11-.91-.84-.9-.69.01"/><path class="cls-5" d="m38.33,50.5c-.12,0-.23,0-.35,0,0,.16,0,.31.01.47.12,0,.23,0,.34,0,0-.16,0-.32,0-.47"/><path class="cls-5" d="m23.41,50.56c-.11,0-.23,0-.34,0,0,.16,0,.32.01.47.11,0,.23,0,.34,0,0-.15,0-.31,0-.47"/><path class="cls-5" d="m43.11,49.23c-.11,0-.23,0-.34,0,0,.3-.21.33-.16.71.17,0,.34,0,.51-.01,0-.24,0-.48-.01-.71"/><path class="cls-5" d="m18.6,49.95c-.24-.3-.65-.3-.68.25.23.3.65.3.68-.25"/><path class="cls-5" d="m49.61,48.39c0,.39.02.79.02,1.18.28,0,.57-.01.86-.02,0-.4-.01-.79-.02-1.18"/><path class="cls-5" d="m44.48,48.96c-.21-.93-.18.94,0,0"/><path class="cls-5" d="m27.67,78.45c-.62.01-1.11.72-1.1,1.58s.54,1.55,1.16,1.54c.62-.01,1.11-.72,1.1-1.58-.02-.86-.54-1.55-1.16-1.53"/><path class="cls-5" d="m46.69,64.86c-.62.01-1.12.72-1.1,1.58.02.86.54,1.55,1.16,1.54.62-.01,1.11-.72,1.1-1.58-.02-.86-.54-1.55-1.16-1.53"/><path class="cls-5" d="m19.86,51.78c-.62.01-1.11.72-1.1,1.58.02.86.54,1.55,1.16,1.54.62-.01,1.11-.72,1.1-1.58-.02-.86-.54-1.55-1.16-1.53"/><path class="cls-5" d="m35.86,60.6c-.37,0-.66.42-.65.93,0,.51.32.91.68.91.37,0,.66-.43.65-.93,0-.51-.32-.91-.68-.91"/><path class="cls-5" d="m46.07,90.38c.37,0,.66-.42.65-.93,0-.51-.32-.91-.68-.91-.37,0-.66.42-.65.93,0,.51.32.91.68.91"/><path class="cls-5" d="m50.41,78.77c.14-.28.21-.64.15-1.19-.28,0-.57.01-.86.02-.06.81.08,1.35.71,1.17"/><path class="cls-5" d="m66.52,77.98c-.1-1.2.64-1.31.99-1.92,0-.31-.3-.21-.35-.47-.39.67-1.31-.05-2.05.51-.14,1.67.57,2.25,1.41,1.87"/><path class="cls-5" d="m50.02,76.18c-.17,0-.34,0-.51,0-.02.52.16.75.53.7,0-.24,0-.48-.01-.71"/><path class="cls-5" d="m63.22,75.92c-.12-.15.07.1,0,0"/><path class="cls-5" d="m27.04,76.39c.55-.12.99-.38.83-1.44-.81-.22-.95.43-.83,1.44"/><path class="cls-5" d="m47.08,75.05c-.04-.18-.01-.47-.18-.47,0,.31-.3.22-.34.48.25.09.3.28.52,0"/><path class="cls-5" d="m45.32,72.96c-.17,0-.34,0-.51,0-.01.59.28.74.53.94,0-.32-.01-.63-.02-.95"/><path class="cls-5" d="m58.7,72.93c.1-.87-.14-1.26-.38-1.65-.6.44-1.35.67-1.16,2.16.71.09,1.09-.24,1.53-.51"/><path class="cls-5" d="m28.99,71.15c-.78-.11-1.11.37-1,1.44.85.2,1.18-.28,1-1.44"/><path class="cls-5" d="m57.8,70.58c-.51-.34-.48,1.07.01.71,0-.24,0-.47-.01-.71"/><path class="cls-5" d="m66.89,70.4c.23.07.33.33.69.22.06-.89-.52-.72-.69-.22"/><path class="cls-5" d="m39.45,70.7c.08.1-.11-.15,0,0"/><path class="cls-5" d="m54.14,67.57c-.65-.27-1.21-1.15-2.06-.43,0,.47.02.94.03,1.42,1.03-.43.57,1.29,1.23,1.39.56-.41.83-1.21.81-2.38"/><path class="cls-5" d="m69.77,68.92c.16-.72-.39-.41-.7-.46,0,.24,0,.47.01.71.3.01.53-.06.68-.25"/><path class="cls-5" d="m54.51,69.22c-.12-.15.07.1,0,0"/><path class="cls-5" d="m33.59,69.63c-.02-1.4-1.17-.21-.34.24.03-.19.14-.28.34-.24"/><path class="cls-5" d="m61.53,68.61c-.23-.32-1.03-.39-1.02.26.22.32,1.03.39,1.02-.26"/><path class="cls-5" d="m37.69,68.61c-.29,0-.43.19-.5.48.27-.03.59.02.5-.48"/><path class="cls-5" d="m30.83,68.74c.13-.06.34-.01.34-.24-.13.06-.34.02-.34.24"/><path class="cls-5" d="m49.28,64.83c-.11,0-.23,0-.34,0,0,.16,0,.32,0,.47.12,0,.23,0,.34,0,0-.16,0-.31,0-.47"/><path class="cls-5" d="m58.65,61.8c-.05.32-.24.45-.15.95.17,0,.34,0,.51-.01.04-.54-.06-.89-.36-.94"/><path class="cls-5" d="m33.1,62.07c-.12-.15.07.1,0,0"/><path class="cls-5" d="m38.05,60.55c-.58-.6-1.35.1-1.35.97.49.48,1.54.16,1.35-.97"/><path class="cls-5" d="m31.35,60.21c-.17,0-.34,0-.52,0,0,.24,0,.47.01.71.17,0,.35,0,.52-.01,0-.24,0-.47-.01-.71"/><path class="cls-5" d="m38.99,56.51c-.52-.52-1.35.1-1.35.97.42.78,1.52.34,1.35-.97"/><path class="cls-5" d="m32.99,56.62c0-.47-.02-.95-.03-1.42-.71-.09-1.09.24-1.53.51.02.63-.07,1.4.37,1.41.25-.36.74-.39,1.19-.5"/><path class="cls-5" d="m62.45,54.15c-.04.63.25.77.7.7.16-.79-.25-.77-.7-.7"/><path class="cls-5" d="m46.32,53.99c-.22-.93-.18.94,0,0"/><path class="cls-5" d="m33.74,51.16c-.55.2-1.13.35-1.53.74-.04.87.22,1.31.38,1.89,1.34.49,1.66-1.41,1.15-2.63"/><path class="cls-5" d="m44.57,51.9c-.17,0-.35,0-.52,0,0,.23,0,.47.01.71.11,0,.23,0,.34,0,0-.3.21-.33.16-.71"/><path class="cls-5" d="m66.67,50.99c-.3.41.07.93.53.94.04-.62-.08-1.02-.53-.94"/><path class="cls-5" d="m57.74,50.45c0,.32.01.63.02.95.68.15.54-1.01-.02-.95"/><path class="cls-5" d="m37.51,50.85c-.2-.19-.46-.3-.86-.22.05.45-.18.53-.15.95.42.52,1.14.15,1.01-.74"/><path class="cls-5" d="m45.05,50.7c.08.1-.11-.15,0,0"/><path class="cls-5" d="m52.93,50.08c-.11,0-.23,0-.34,0,0,.15,0,.31,0,.47.11,0,.23,0,.34,0,0-.15,0-.31,0-.47"/><path class="cls-5" d="m55.8,47.65c-.03.45.2.52.19.94.28,0,.57-.01.86-.02.09-.95-.47-.94-1.05-.93"/><path class="cls-5" d="m64.67,44.87c-.67.25-1-.5-1.37.03,0,.74.55.67.38,1.65.88.17,1.17-.44.99-1.68"/><path class="cls-5" d="m38.11,46.58c.12-.92-.84-.9-.69.01.35.39.22-.03.69-.01"/><path class="cls-5" d="m53.88,46.03c-.12-.15.07.1,0,0"/><path class="cls-5" d="m29.19,46.52c.07.1-.11-.15,0,0"/><path class="cls-5" d="m51.47,45.13c-.51-.34-.48,1.07.01.71,0-.24,0-.47-.01-.71"/><path class="cls-5" d="m51.81,45.36c.07.1-.12-.15,0,0"/><path class="cls-5" d="m40.84,45.58c.15-1.38-.74-.09,0,0"/><path class="cls-5" d="m54.03,44.84c.13-.06.34-.01.34-.25-.13.06-.34.01-.34.25"/><path class="cls-5" d="m46.65,44.75c-.22-.93-.18.94,0,0"/><path class="cls-5" d="m29.34,45.33c.13-.06.34-.01.34-.25-.13.06-.34.01-.34.25"/><path class="cls-5" d="m67.87,42.2c-.17,0-.34,0-.52.01,0,.24,0,.47.01.71.17,0,.34,0,.52-.01,0-.24,0-.47-.01-.71"/><path class="cls-5" d="m44.9,42.65c-.11,0-.23,0-.34,0,0,.3-.22.33-.16.72.11,0,.23,0,.34,0,0-.3.21-.33.16-.72"/><path class="cls-5" d="m52.43,42.03c.4-.8-.57.59,0,0"/><path class="cls-5" d="m50.52,40.65c.11-1.44-.79-.14,0,0"/><path class="cls-5" d="m35.57,39.76c-.51-.34-.48,1.07.01.71,0-.24,0-.47-.01-.71"/><path class="cls-5" d="m68.32,38.64c-.51-.34-.48,1.07.01.71,0-.24,0-.48-.01-.71"/><path class="cls-5" d="m57.87,39.32c.4-.8-.56.58,0,0"/><path class="cls-5" d="m33.18,39.81c.4-.8-.56.58,0,0"/><path class="cls-5" d="m64.55,38.95c.23,0,.46,0,.69-.01.12-.91-.84-.89-.69.01"/><path class="cls-5" d="m51.33,38.5c-.12,0-.23,0-.35,0,0,.16,0,.31.01.47.12,0,.23,0,.34,0,0-.16,0-.32,0-.47"/><path class="cls-5" d="m36.41,38.56c-.11,0-.23,0-.34,0,0,.16,0,.32,0,.47.11,0,.23,0,.34,0,0-.15,0-.31,0-.47"/><path class="cls-5" d="m56.11,37.23c-.11,0-.23,0-.34,0,0,.3-.21.33-.16.71.17,0,.34,0,.51-.01,0-.24,0-.48-.01-.71"/><path class="cls-5" d="m31.6,37.95c-.24-.3-.65-.3-.68.25.23.3.65.3.68-.25"/><path class="cls-5" d="m62.61,36.39c0,.39.02.79.02,1.18.28,0,.57-.01.86-.02,0-.39-.01-.79-.02-1.18"/><path class="cls-5" d="m57.48,36.96c-.21-.93-.18.94,0,0"/><path class="cls-5" d="m40.67,66.45c-.62.01-1.12.72-1.1,1.58.02.86.54,1.55,1.16,1.54.62-.01,1.11-.72,1.1-1.58-.02-.86-.54-1.55-1.16-1.53"/><path class="cls-5" d="m59.69,52.86c-.62.01-1.12.72-1.1,1.58.02.86.54,1.55,1.16,1.54.62-.01,1.11-.72,1.1-1.58-.02-.86-.54-1.55-1.16-1.53"/><path class="cls-5" d="m32.86,39.78c-.62.01-1.11.72-1.1,1.58s.54,1.55,1.16,1.54c.62-.01,1.11-.72,1.1-1.58-.02-.86-.54-1.55-1.16-1.54"/><path class="cls-5" d="m48.86,48.6c-.37,0-.66.42-.65.93,0,.51.32.91.68.91.37,0,.66-.43.65-.93,0-.51-.32-.91-.68-.91"/><path class="cls-5" d="m59.07,78.38c.37,0,.66-.42.65-.93,0-.51-.32-.91-.68-.91-.37,0-.66.43-.65.93,0,.51.32.91.68.91"/><path class="cls-5" d="m61.41,89.77c.14-.28.21-.64.15-1.18-.28,0-.57.01-.86.02-.06.81.08,1.35.71,1.17"/><path class="cls-5" d="m77.52,88.98c-.1-1.2.64-1.31.99-1.92,0-.31-.3-.21-.35-.47-.39.67-1.31-.05-2.05.51-.14,1.67.57,2.25,1.41,1.87"/><path class="cls-5" d="m61.02,87.18c-.17,0-.34,0-.51.01-.02.52.16.75.53.7,0-.24,0-.48-.01-.71"/><path class="cls-5" d="m74.22,86.92c-.12-.15.07.1,0,0"/><path class="cls-5" d="m38.04,87.39c.55-.11.99-.38.83-1.44-.81-.22-.95.43-.83,1.44"/><path class="cls-5" d="m58.08,86.05c-.04-.18-.01-.47-.18-.47,0,.31-.3.22-.34.48.25.09.3.28.52-.01"/><path class="cls-5" d="m56.32,83.96c-.17,0-.34,0-.51.01-.01.59.28.74.53.94,0-.32-.01-.63-.02-.95"/><path class="cls-5" d="m69.7,83.93c.1-.86-.14-1.26-.38-1.65-.6.44-1.35.67-1.16,2.16.71.09,1.09-.24,1.53-.5"/><path class="cls-5" d="m39.99,82.15c-.78-.11-1.11.37-1,1.44.85.2,1.18-.28,1-1.44"/><path class="cls-5" d="m68.8,81.58c-.51-.34-.48,1.07.01.71,0-.24,0-.47-.01-.71"/><path class="cls-5" d="m77.89,81.4c.23.07.33.33.69.23.06-.89-.52-.72-.69-.23"/><path class="cls-5" d="m50.45,81.7c.08.1-.11-.15,0,0"/><path class="cls-5" d="m65.14,78.57c-.65-.27-1.21-1.15-2.06-.43,0,.47.02.94.03,1.42,1.03-.43.57,1.29,1.23,1.4.56-.41.82-1.21.81-2.39"/><path class="cls-5" d="m80.77,79.92c.16-.72-.39-.41-.7-.46,0,.24,0,.47.01.71.3.01.53-.06.68-.25"/><path class="cls-5" d="m65.51,80.22c-.12-.15.07.1,0,0"/><path class="cls-5" d="m44.59,80.63c-.02-1.4-1.17-.21-.34.24.03-.18.14-.28.34-.24"/><path class="cls-5" d="m72.53,79.61c-.23-.32-1.03-.39-1.02.26.22.32,1.03.39,1.02-.26"/><path class="cls-5" d="m48.69,79.61c-.29,0-.43.19-.5.48.27-.03.59.02.5-.48"/><path class="cls-5" d="m41.83,79.74c.13-.06.34-.01.34-.25-.13.06-.34.02-.34.25"/><path class="cls-5" d="m60.28,75.83c-.11,0-.23,0-.34,0,0,.16,0,.32,0,.47.12,0,.23,0,.34,0,0-.16,0-.31,0-.47"/><path class="cls-5" d="m69.65,72.8c-.05.32-.24.45-.15.95.17,0,.34,0,.51-.01.04-.54-.06-.89-.36-.94"/><path class="cls-5" d="m44.1,73.07c-.12-.15.07.1,0,0"/><path class="cls-5" d="m49.05,71.55c-.58-.6-1.35.1-1.35.97.49.48,1.54.16,1.35-.97"/><path class="cls-5" d="m42.35,71.21c-.17,0-.34,0-.52,0,0,.24,0,.47.01.71.17,0,.35,0,.52-.01,0-.24,0-.47-.01-.71"/><path class="cls-5" d="m49.99,67.51c-.52-.52-1.35.1-1.35.97.42.78,1.52.34,1.35-.97"/><path class="cls-5" d="m43.99,67.62c0-.47-.02-.95-.03-1.42-.71-.09-1.09.24-1.53.51.01.63-.07,1.4.37,1.41.25-.36.74-.39,1.19-.5"/><path class="cls-5" d="m73.45,65.15c-.04.63.25.77.7.7.16-.79-.25-.77-.7-.7"/><path class="cls-5" d="m57.32,64.99c-.22-.93-.18.94,0,0"/><path class="cls-5" d="m44.74,62.16c-.55.2-1.13.35-1.53.74-.04.87.22,1.31.38,1.89,1.34.49,1.66-1.41,1.15-2.63"/><path class="cls-5" d="m55.57,62.9c-.17,0-.35,0-.52,0,0,.23,0,.47.01.71.11,0,.23,0,.34,0,0-.3.21-.33.16-.71"/><path class="cls-5" d="m77.67,61.99c-.3.41.07.93.53.94.04-.62-.08-1.02-.53-.94"/><path class="cls-5" d="m68.74,61.45c0,.32.01.63.02.95.68.15.54-1.01-.02-.95"/><path class="cls-5" d="m48.51,61.85c-.2-.19-.46-.3-.86-.22.05.45-.18.53-.15.95.42.52,1.14.15,1.01-.74"/><path class="cls-5" d="m56.05,61.7c.08.1-.11-.15,0,0"/><path class="cls-5" d="m63.93,61.08c-.11,0-.23,0-.34,0,0,.15,0,.31,0,.47.11,0,.23,0,.34,0,0-.15,0-.31,0-.47"/><path class="cls-5" d="m66.8,58.65c-.03.45.2.52.19.94.28,0,.57-.01.86-.02.1-.95-.47-.94-1.05-.93"/><path class="cls-5" d="m75.67,55.87c-.67.25-1-.51-1.37.03,0,.74.55.67.38,1.65.88.17,1.17-.44,1-1.68"/><path class="cls-5" d="m49.11,57.58c.12-.92-.84-.9-.69.01.35.39.22-.03.69-.01"/><path class="cls-5" d="m64.88,57.03c-.12-.15.07.1,0,0"/><path class="cls-5" d="m40.19,57.52c.07.1-.11-.15,0,0"/><path class="cls-5" d="m62.47,56.13c-.51-.34-.48,1.07.01.71,0-.24,0-.47-.01-.71"/><path class="cls-5" d="m62.81,56.36c.07.1-.12-.15,0,0"/><path class="cls-5" d="m51.84,56.58c.15-1.38-.74-.09,0,0"/><path class="cls-5" d="m65.03,55.84c.13-.06.34-.01.34-.24-.13.06-.34.01-.34.24"/><path class="cls-5" d="m57.65,55.75c-.22-.93-.18.94,0,0"/><path class="cls-5" d="m40.34,56.33c.13-.06.34-.01.34-.24-.13.06-.34.01-.34.24"/><path class="cls-5" d="m78.87,53.2c-.17,0-.34,0-.52,0,0,.24,0,.47.01.71.17,0,.34,0,.52-.01,0-.24,0-.47-.01-.71"/><path class="cls-5" d="m55.9,53.65c-.11,0-.23,0-.34,0,0,.3-.22.33-.16.72.11,0,.23,0,.34,0,0-.3.21-.33.16-.72"/><path class="cls-5" d="m63.43,53.03c.4-.8-.57.59,0,0"/><path class="cls-5" d="m61.52,51.65c.11-1.44-.79-.14,0,0"/><path class="cls-5" d="m46.57,50.76c-.51-.34-.48,1.07.01.71,0-.24,0-.47-.01-.71"/><path class="cls-5" d="m79.32,49.64c-.51-.34-.48,1.07.01.71,0-.24,0-.48-.01-.71"/><path class="cls-5" d="m68.87,50.32c.4-.8-.56.58,0,0"/><path class="cls-5" d="m44.18,50.81c.4-.8-.56.58,0,0"/><path class="cls-5" d="m75.55,49.95c.23,0,.46,0,.69-.01.12-.91-.84-.9-.69.01"/><path class="cls-5" d="m62.33,49.5c-.12,0-.23,0-.35,0,0,.16,0,.31.01.47.12,0,.23,0,.34,0,0-.16,0-.32,0-.47"/><path class="cls-5" d="m47.41,49.56c-.11,0-.23,0-.34,0,0,.16,0,.32,0,.47.11,0,.23,0,.34,0,0-.15,0-.31,0-.47"/><path class="cls-5" d="m67.11,48.23c-.11,0-.23,0-.34,0,0,.3-.21.33-.16.71.17,0,.34,0,.51-.01,0-.24,0-.48-.01-.71"/><path class="cls-5" d="m42.6,48.95c-.24-.3-.65-.3-.68.25.23.3.65.3.68-.25"/><path class="cls-5" d="m73.61,47.39c0,.39.02.79.02,1.18.28,0,.57-.01.86-.02,0-.4-.01-.79-.02-1.18"/><path class="cls-5" d="m68.48,47.96c-.21-.93-.18.94,0,0"/><path class="cls-5" d="m51.67,77.45c-.62.01-1.12.72-1.1,1.58.02.86.54,1.55,1.16,1.54.62-.01,1.11-.72,1.1-1.58-.02-.86-.54-1.55-1.16-1.53"/><path class="cls-5" d="m70.69,63.86c-.62.01-1.11.72-1.1,1.58.02.86.54,1.55,1.16,1.54.62-.01,1.12-.72,1.1-1.58-.02-.86-.54-1.55-1.16-1.53"/><path class="cls-5" d="m43.86,50.78c-.62.01-1.12.72-1.1,1.58.02.86.54,1.55,1.16,1.54.62-.01,1.11-.72,1.1-1.58-.02-.86-.54-1.55-1.16-1.53"/><path class="cls-5" d="m59.86,59.6c-.37,0-.66.42-.65.93,0,.51.32.91.68.91.37,0,.66-.43.65-.93,0-.51-.32-.91-.68-.91"/><path class="cls-5" d="m70.07,89.38c.37,0,.66-.42.65-.93-.01-.51-.32-.91-.68-.91-.37,0-.66.42-.65.93,0,.51.32.91.68.91"/><path class="cls-5" d="m29.45,110.61c.14-.28.21-.64.15-1.18-.28,0-.57.01-.86.02-.06.81.08,1.35.71,1.17"/><path class="cls-5" d="m45.56,109.82c-.1-1.2.64-1.3.99-1.92,0-.31-.3-.21-.35-.46-.39.67-1.31-.05-2.04.51-.14,1.67.57,2.25,1.41,1.87"/><path class="cls-5" d="m29.06,108.01c-.17,0-.34,0-.51,0-.02.52.16.75.53.7,0-.24,0-.48-.01-.71"/><path class="cls-5" d="m42.26,107.75c-.12-.15.07.1,0,0"/><path class="cls-5" d="m6.08,108.23c.55-.12.99-.38.83-1.44-.81-.22-.95.43-.83,1.44"/><path class="cls-5" d="m26.12,106.89c-.04-.18-.01-.47-.18-.47,0,.31-.3.22-.34.48.25.09.3.28.52,0"/><path class="cls-5" d="m24.36,104.79c-.17,0-.34,0-.51.01-.02.59.28.73.53.94,0-.32-.01-.63-.02-.95"/><path class="cls-5" d="m37.74,104.76c.1-.87-.14-1.26-.38-1.65-.6.44-1.35.67-1.16,2.16.71.09,1.09-.24,1.53-.51"/><path class="cls-5" d="m8.03,102.98c-.78-.11-1.11.37-1,1.44.85.2,1.18-.28,1-1.44"/><path class="cls-5" d="m36.84,102.41c-.51-.34-.48,1.07.01.71,0-.24,0-.47-.01-.71"/><path class="cls-5" d="m45.93,102.23c.23.07.33.33.69.23.06-.89-.52-.72-.69-.23"/><path class="cls-5" d="m18.49,102.54c.08.1-.11-.15,0,0"/><path class="cls-5" d="m33.18,99.41c-.65-.27-1.21-1.15-2.07-.43,0,.47.02.94.03,1.42,1.03-.43.57,1.29,1.23,1.4.56-.41.83-1.21.81-2.39"/><path class="cls-5" d="m48.81,100.76c.16-.72-.39-.41-.7-.46,0,.24,0,.47.01.71.3.01.53-.06.68-.25"/><path class="cls-5" d="m33.55,101.06c-.12-.15.07.1,0,0"/><path class="cls-5" d="m12.63,101.47c-.02-1.4-1.18-.21-.34.24.03-.19.14-.28.34-.24"/><path class="cls-5" d="m40.57,100.44c-.23-.32-1.03-.39-1.02.26.22.32,1.03.39,1.02-.26"/><path class="cls-5" d="m16.73,100.44c-.29,0-.43.19-.5.48.27-.03.59.02.5-.48"/><path class="cls-5" d="m9.87,100.58c.13-.06.34-.01.34-.24-.13.06-.34.02-.34.24"/><path class="cls-5" d="m28.32,96.66c-.11,0-.23,0-.34,0v.47c.13,0,.24,0,.35,0,0-.16,0-.31,0-.47"/><path class="cls-5" d="m37.69,93.64c-.05.32-.24.45-.15.95.17,0,.34,0,.51-.01.04-.54-.06-.89-.36-.94"/><path class="cls-5" d="m12.14,93.9c-.12-.15.07.1,0,0"/><path class="cls-5" d="m17.09,92.38c-.58-.6-1.35.09-1.35.97.49.48,1.54.16,1.35-.97"/><path class="cls-5" d="m10.39,92.04c-.17,0-.34,0-.52.01,0,.24,0,.47.01.71.17,0,.35,0,.52-.01,0-.24,0-.47-.01-.71"/><path class="cls-5" d="m18.03,88.34c-.52-.52-1.35.09-1.35.97.41.78,1.52.34,1.35-.97"/><path class="cls-5" d="m12.03,88.46c0-.48-.02-.95-.03-1.42-.7-.09-1.09.24-1.53.5.02.63-.07,1.4.37,1.41.25-.36.74-.4,1.19-.5"/><path class="cls-5" d="m41.49,85.98c-.04.63.25.77.7.7.16-.79-.25-.77-.7-.7"/><path class="cls-5" d="m25.36,85.83c-.22-.93-.18.94,0,0"/><path class="cls-5" d="m12.78,83c-.55.2-1.13.35-1.53.74-.04.87.22,1.31.38,1.89,1.34.49,1.66-1.4,1.14-2.63"/><path class="cls-5" d="m23.61,83.73c-.17,0-.34,0-.52.01,0,.23.01.47.01.71.11,0,.23,0,.34,0,0-.3.21-.33.16-.71"/><path class="cls-5" d="m45.71,82.82c-.3.41.07.93.53.93.04-.62-.08-1.02-.53-.93"/><path class="cls-5" d="m36.78,82.28c0,.32.01.63.02.95.68.15.54-1.01-.02-.95"/><path class="cls-5" d="m16.55,82.68c-.2-.19-.46-.3-.86-.22.05.45-.18.53-.15.95.41.52,1.14.15,1.01-.74"/><path class="cls-5" d="m24.09,82.53c.08.1-.11-.15,0,0"/><path class="cls-5" d="m31.97,81.91c-.11,0-.23,0-.34,0,0,.16,0,.31.01.47.11,0,.23,0,.34,0,0-.15,0-.31,0-.47"/><path class="cls-5" d="m34.84,79.48c-.03.45.2.52.19.94.28,0,.57-.01.86-.02.09-.95-.47-.94-1.05-.93"/><path class="cls-5" d="m43.71,76.7c-.67.25-1-.51-1.37.03,0,.74.55.67.38,1.65.88.17,1.17-.44.99-1.68"/><path class="cls-5" d="m17.15,78.41c.12-.92-.84-.9-.69.01.35.39.22-.03.69-.01"/><path class="cls-5" d="m32.92,77.86c-.12-.15.07.1,0,0"/><path class="cls-5" d="m8.23,78.35c.07.1-.11-.15,0,0"/><path class="cls-5" d="m30.5,76.96c-.51-.34-.48,1.07.01.71,0-.24,0-.47-.01-.71"/><path class="cls-5" d="m30.85,77.2c.07.1-.12-.15,0,0"/><path class="cls-5" d="m19.88,77.41c.15-1.38-.75-.09,0,0"/><path class="cls-5" d="m33.07,76.68c.13-.06.34-.01.34-.24-.13.06-.34.01-.34.24"/><path class="cls-5" d="m25.69,76.59c-.22-.93-.18.94,0,0"/><path class="cls-5" d="m8.38,77.17c.13-.06.34-.01.34-.24-.13.06-.34.01-.34.24"/><path class="cls-5" d="m46.91,74.03c-.17,0-.34,0-.52,0,0,.24,0,.47.01.71.17,0,.34,0,.52-.01,0-.24,0-.47-.01-.71"/><path class="cls-5" d="m23.94,74.49c-.11,0-.23,0-.34,0,0,.3-.21.33-.15.72.11,0,.23,0,.34,0,0-.3.21-.33.16-.72"/><path class="cls-5" d="m31.47,73.87c.4-.8-.57.59,0,0"/><path class="cls-5" d="m29.56,72.49c.11-1.44-.79-.14,0,0"/><path class="cls-5" d="m14.61,71.6c-.51-.34-.48,1.07.01.71,0-.24,0-.47-.01-.71"/><path class="cls-5" d="m47.36,70.48c-.51-.34-.48,1.07.01.71,0-.24,0-.48-.01-.71"/><path class="cls-5" d="m36.91,71.16c.4-.8-.56.58,0,0"/><path class="cls-5" d="m12.22,71.64c.4-.8-.56.58,0,0"/><path class="cls-5" d="m43.59,70.79c.23,0,.46,0,.69-.01.11-.91-.84-.9-.69.01"/><path class="cls-5" d="m30.37,70.34c-.12,0-.23,0-.35,0,0,.16,0,.31.01.47.12,0,.23,0,.35,0,0-.16,0-.32,0-.47"/><path class="cls-5" d="m15.45,70.4c-.11,0-.23,0-.34,0,0,.16,0,.32,0,.47.11,0,.23,0,.34,0,0-.15,0-.31,0-.47"/><path class="cls-5" d="m35.15,69.06c-.11,0-.23,0-.34,0,0,.3-.21.33-.16.71.17,0,.34,0,.51-.01,0-.24,0-.48-.01-.71"/><path class="cls-5" d="m10.64,69.78c-.23-.3-.65-.3-.68.25.23.3.65.3.68-.25"/><path class="cls-5" d="m41.65,68.22c0,.39.02.79.02,1.18.28,0,.57-.01.86-.02,0-.4-.01-.79-.02-1.18"/><path class="cls-5" d="m36.52,68.79c-.21-.93-.18.94,0,0"/><path class="cls-5" d="m19.71,98.28c-.62.01-1.11.72-1.1,1.58.02.86.54,1.55,1.16,1.54.62-.01,1.11-.72,1.1-1.58-.02-.86-.54-1.55-1.16-1.53"/><path class="cls-5" d="m38.73,84.69c-.62.01-1.12.72-1.1,1.58.02.86.54,1.55,1.16,1.54.62-.01,1.11-.72,1.1-1.58-.02-.86-.54-1.55-1.16-1.53"/><path class="cls-5" d="m11.9,71.61c-.62.01-1.11.72-1.1,1.58.02.86.54,1.55,1.16,1.54.62-.01,1.11-.72,1.1-1.58-.02-.86-.54-1.55-1.16-1.53"/><path class="cls-5" d="m27.9,80.44c-.37,0-.66.42-.65.93.01.51.32.91.68.91.37,0,.66-.42.65-.93-.01-.51-.32-.91-.68-.91"/><path class="cls-5" d="m38.11,110.21c.37,0,.66-.43.65-.93,0-.51-.32-.91-.68-.91-.37,0-.66.43-.65.93,0,.51.32.91.68.91"/><path class="cls-5" d="m23.41,89.77c.14-.28.21-.64.15-1.18-.28,0-.57.01-.86.02-.06.81.08,1.35.71,1.17"/><path class="cls-5" d="m39.52,88.98c-.1-1.2.64-1.31.99-1.92,0-.31-.3-.21-.35-.47-.39.67-1.31-.05-2.04.51-.14,1.67.57,2.25,1.41,1.87"/><path class="cls-5" d="m23.02,87.18c-.17,0-.34,0-.51.01-.02.52.16.75.53.7,0-.24,0-.48-.01-.71"/><path class="cls-5" d="m36.22,86.92c-.12-.15.07.1,0,0"/><path class="cls-5" d="m.04,87.39c.55-.11.99-.38.83-1.44-.81-.22-.95.43-.83,1.44"/><path class="cls-5" d="m20.08,86.05c-.04-.18-.01-.47-.18-.47,0,.31-.3.22-.34.48.25.09.3.28.52-.01"/><path class="cls-5" d="m18.32,83.96c-.17,0-.34,0-.51.01-.02.59.28.74.53.94,0-.32-.01-.63-.02-.95"/><path class="cls-5" d="m31.7,83.93c.1-.86-.14-1.26-.38-1.65-.6.44-1.35.67-1.16,2.16.71.09,1.09-.24,1.53-.5"/><path class="cls-5" d="m1.99,82.15c-.78-.11-1.11.37-1,1.44.85.2,1.18-.28,1-1.44"/><path class="cls-5" d="m30.8,81.58c-.51-.34-.48,1.07.01.71,0-.24,0-.47-.01-.71"/><path class="cls-5" d="m39.89,81.4c.23.07.33.33.69.23.06-.89-.52-.72-.69-.23"/><path class="cls-5" d="m12.45,81.7c.08.1-.11-.15,0,0"/><path class="cls-5" d="m27.14,78.57c-.65-.27-1.21-1.15-2.07-.43,0,.47.02.94.03,1.42,1.03-.43.57,1.29,1.23,1.4.56-.41.83-1.21.81-2.39"/><path class="cls-5" d="m42.77,79.92c.16-.72-.39-.41-.7-.46,0,.24,0,.47.01.71.3.01.53-.06.68-.25"/><path class="cls-5" d="m27.51,80.22c-.12-.15.07.1,0,0"/><path class="cls-5" d="m6.59,80.63c-.02-1.4-1.18-.21-.34.24.03-.18.14-.28.34-.24"/><path class="cls-5" d="m34.53,79.61c-.23-.32-1.03-.39-1.02.26.22.32,1.03.39,1.02-.26"/><path class="cls-5" d="m10.69,79.61c-.29,0-.43.19-.5.48.27-.03.59.02.5-.48"/><path class="cls-5" d="m3.83,79.74c.13-.06.34-.01.34-.25-.13.06-.34.02-.34.25"/><path class="cls-5" d="m22.28,75.83c-.11,0-.23,0-.34,0,0,.16,0,.32,0,.47.12,0,.23,0,.34,0,0-.16,0-.31,0-.47"/><path class="cls-5" d="m31.66,72.8c-.05.32-.24.45-.15.95.17,0,.34,0,.51-.01.04-.54-.06-.89-.36-.94"/><path class="cls-5" d="m6.1,73.07c-.12-.15.07.1,0,0"/><path class="cls-5" d="m11.05,71.55c-.58-.6-1.35.1-1.35.97.48.48,1.54.16,1.35-.97"/><path class="cls-5" d="m4.35,71.21c-.17,0-.34,0-.52,0,0,.24,0,.47.01.71.17,0,.35,0,.52-.01,0-.24,0-.47-.01-.71"/><path class="cls-5" d="m11.99,67.51c-.52-.52-1.35.1-1.36.97.42.78,1.53.34,1.36-.97"/><path class="cls-5" d="m5.99,67.62c0-.47-.02-.95-.03-1.42-.7-.09-1.09.24-1.53.51.01.63-.07,1.4.37,1.41.25-.36.74-.39,1.19-.5"/><path class="cls-5" d="m35.45,65.15c-.04.63.25.77.7.7.16-.79-.25-.77-.7-.7"/><path class="cls-5" d="m19.32,64.99c-.22-.93-.18.94,0,0"/><path class="cls-5" d="m6.74,62.16c-.55.2-1.13.35-1.53.74-.04.87.22,1.31.38,1.89,1.34.49,1.66-1.41,1.14-2.63"/><path class="cls-5" d="m17.57,62.9c-.17,0-.34,0-.52,0,0,.23.01.47.01.71.11,0,.23,0,.34,0,0-.3.21-.33.16-.71"/><path class="cls-5" d="m39.67,61.99c-.3.41.07.93.53.94.04-.62-.08-1.02-.53-.94"/><path class="cls-5" d="m30.74,61.45c0,.32.01.63.02.95.68.15.54-1.01-.02-.95"/><path class="cls-5" d="m10.51,61.85c-.2-.19-.46-.3-.86-.22.05.45-.18.53-.15.95.41.52,1.14.15,1.01-.74"/><path class="cls-5" d="m18.05,61.7c.08.1-.11-.15,0,0"/><path class="cls-5" d="m25.93,61.08c-.11,0-.23,0-.34,0,0,.15,0,.31,0,.47.11,0,.23,0,.34,0,0-.15,0-.31,0-.47"/><path class="cls-5" d="m28.8,58.65c-.03.45.2.52.19.94.29,0,.57-.01.86-.02.09-.95-.47-.94-1.05-.93"/><path class="cls-5" d="m37.67,55.87c-.67.25-1-.51-1.37.03,0,.74.55.67.38,1.65.88.17,1.17-.44.99-1.68"/><path class="cls-5" d="m11.11,57.58c.12-.92-.84-.9-.69.01.35.39.22-.03.69-.01"/><path class="cls-5" d="m26.88,57.03c-.12-.15.07.1,0,0"/><path class="cls-5" d="m2.19,57.52c.07.1-.11-.15,0,0"/><path class="cls-5" d="m24.47,56.13c-.51-.34-.48,1.07.01.71,0-.24,0-.47-.01-.71"/><path class="cls-5" d="m24.81,56.36c.07.1-.12-.15,0,0"/><path class="cls-5" d="m13.84,56.58c.15-1.38-.74-.09,0,0"/><path class="cls-5" d="m27.03,55.84c.13-.06.34-.01.34-.24-.13.06-.34.01-.34.24"/><path class="cls-5" d="m19.65,55.75c-.22-.93-.18.94,0,0"/><path class="cls-5" d="m2.34,56.33c.13-.06.34-.01.34-.24-.13.06-.34.01-.34.24"/><path class="cls-5" d="m40.87,53.2c-.17,0-.34,0-.52,0,0,.24,0,.47.01.71.17,0,.34,0,.52-.01,0-.24,0-.47-.01-.71"/><path class="cls-5" d="m17.9,53.65c-.11,0-.23,0-.34,0,0,.3-.22.33-.16.72.11,0,.23,0,.34,0,0-.3.21-.33.16-.72"/><path class="cls-5" d="m25.43,53.03c.4-.8-.57.59,0,0"/><path class="cls-5" d="m23.52,51.65c.11-1.44-.79-.14,0,0"/><path class="cls-5" d="m8.57,50.76c-.51-.34-.48,1.07.01.71,0-.24,0-.47-.01-.71"/><path class="cls-5" d="m41.32,49.64c-.51-.34-.48,1.07.01.71,0-.24,0-.48-.01-.71"/><path class="cls-5" d="m30.87,50.32c.4-.8-.56.58,0,0"/><path class="cls-5" d="m6.18,50.81c.4-.8-.56.58,0,0"/><path class="cls-5" d="m37.55,49.95c.23,0,.46,0,.69-.01.11-.91-.84-.9-.69.01"/><path class="cls-5" d="m24.33,49.5c-.12,0-.23,0-.35,0,0,.16,0,.31.01.47.12,0,.23,0,.35,0,0-.16,0-.32,0-.47"/><path class="cls-5" d="m9.41,49.56c-.11,0-.23,0-.34,0,0,.16,0,.32,0,.47.11,0,.23,0,.34,0,0-.15,0-.31,0-.47"/><path class="cls-5" d="m29.11,48.23c-.11,0-.23,0-.34,0,0,.3-.21.33-.16.71.17,0,.34,0,.51-.01,0-.24,0-.48-.01-.71"/><path class="cls-5" d="m4.6,48.95c-.24-.3-.65-.3-.68.25.23.3.65.3.68-.25"/><path class="cls-5" d="m35.61,47.39c0,.39.02.79.02,1.18.28,0,.57-.01.86-.02,0-.4-.01-.79-.02-1.18"/><path class="cls-5" d="m30.48,47.96c-.21-.93-.18.94,0,0"/><path class="cls-5" d="m13.67,77.45c-.62.01-1.11.72-1.1,1.58.02.86.54,1.55,1.16,1.54.62-.01,1.11-.72,1.1-1.58-.02-.86-.54-1.55-1.16-1.53"/><path class="cls-5" d="m32.69,63.86c-.62.01-1.11.72-1.1,1.58.02.86.54,1.55,1.16,1.54.62-.01,1.11-.72,1.1-1.58-.02-.86-.54-1.55-1.16-1.53"/><path class="cls-5" d="m5.86,50.78c-.62.01-1.11.72-1.1,1.58.02.86.54,1.55,1.16,1.54.62-.01,1.11-.72,1.1-1.58-.02-.86-.54-1.55-1.16-1.53"/><path class="cls-5" d="m21.86,59.6c-.37,0-.66.42-.65.93.01.51.32.91.68.91.37,0,.66-.43.65-.93-.01-.51-.32-.91-.68-.91"/><path class="cls-5" d="m32.07,89.38c.37,0,.66-.42.65-.93,0-.51-.32-.91-.68-.91-.37,0-.66.42-.65.93.01.51.32.91.68.91"/><path class="cls-5" d="m31.41,68.55c.14-.28.21-.64.15-1.19-.28,0-.57.01-.86.02-.06.81.08,1.35.71,1.17"/><path class="cls-5" d="m47.52,67.76c-.1-1.2.64-1.31.99-1.92,0-.31-.3-.21-.35-.47-.39.67-1.31-.05-2.04.51-.14,1.67.57,2.25,1.41,1.87"/><path class="cls-5" d="m31.02,65.96c-.17,0-.34,0-.51,0-.02.52.16.75.53.7,0-.24,0-.48-.01-.71"/><path class="cls-5" d="m44.22,65.7c-.12-.15.07.1,0,0"/><path class="cls-5" d="m8.04,66.18c.55-.12.99-.38.83-1.44-.81-.22-.95.43-.83,1.44"/><path class="cls-5" d="m28.08,64.83c-.04-.18-.01-.47-.18-.47,0,.31-.3.22-.34.48.25.09.3.28.52,0"/><path class="cls-5" d="m26.32,62.74c-.17,0-.34,0-.51,0-.02.59.28.74.53.94,0-.32-.01-.63-.02-.95"/><path class="cls-5" d="m39.7,62.71c.1-.87-.14-1.26-.38-1.65-.6.44-1.35.67-1.16,2.16.71.09,1.09-.24,1.53-.51"/><path class="cls-5" d="m9.99,60.93c-.78-.11-1.11.37-1,1.44.85.2,1.18-.28,1-1.44"/><path class="cls-5" d="m38.8,60.36c-.51-.34-.48,1.07.01.71,0-.24,0-.47-.01-.71"/><path class="cls-5" d="m47.89,60.18c.23.07.33.33.69.22.06-.89-.52-.72-.69-.22"/><path class="cls-5" d="m20.45,60.48c.08.1-.11-.15,0,0"/><path class="cls-5" d="m35.14,57.35c-.65-.27-1.21-1.15-2.06-.43,0,.47.02.94.03,1.42,1.03-.43.57,1.29,1.23,1.39.56-.41.83-1.21.81-2.38"/><path class="cls-5" d="m50.77,58.7c.16-.72-.39-.41-.7-.46,0,.24,0,.47.01.71.3.01.53-.06.68-.25"/><path class="cls-5" d="m35.51,59c-.12-.15.07.1,0,0"/><path class="cls-5" d="m14.59,59.42c-.02-1.4-1.18-.21-.34.24.03-.19.14-.28.34-.24"/><path class="cls-5" d="m42.53,58.39c-.23-.32-1.03-.39-1.02.26.22.32,1.03.39,1.02-.26"/><path class="cls-5" d="m18.69,58.39c-.29,0-.43.19-.5.48.27-.03.59.02.5-.48"/><path class="cls-5" d="m11.83,58.52c.13-.06.34-.01.34-.24-.13.06-.34.02-.34.24"/><path class="cls-5" d="m30.28,54.61c-.11,0-.23,0-.34,0,0,.16,0,.32,0,.47.12,0,.23,0,.34,0,0-.16,0-.31,0-.47"/><path class="cls-5" d="m39.65,51.58c-.05.32-.24.45-.15.95.17,0,.34,0,.51-.01.04-.54-.06-.89-.36-.94"/><path class="cls-5" d="m14.1,51.85c-.12-.15.07.1,0,0"/><path class="cls-5" d="m19.05,50.33c-.58-.6-1.35.1-1.35.97.49.48,1.54.16,1.35-.97"/><path class="cls-5" d="m12.35,49.99c-.17,0-.34,0-.52,0,0,.24,0,.47.01.71.17,0,.35,0,.52-.01,0-.24,0-.47-.01-.71"/><path class="cls-5" d="m20,46.29c-.52-.52-1.35.1-1.35.97.41.78,1.52.34,1.35-.97"/><path class="cls-5" d="m13.99,46.4c0-.47-.02-.95-.03-1.42-.7-.09-1.09.24-1.53.5.01.63-.07,1.4.37,1.41.25-.36.74-.4,1.19-.5"/><path class="cls-5" d="m43.45,43.93c-.04.63.25.77.7.7.16-.79-.25-.77-.7-.7"/><path class="cls-5" d="m27.32,43.77c-.22-.93-.18.94,0,0"/><path class="cls-5" d="m14.74,40.94c-.55.2-1.13.35-1.53.74-.04.87.22,1.31.38,1.89,1.34.49,1.66-1.4,1.14-2.63"/><path class="cls-5" d="m25.57,41.68c-.17,0-.34,0-.52.01,0,.23.01.47.01.71.11,0,.23,0,.34,0,0-.3.21-.33.16-.71"/><path class="cls-5" d="m47.67,40.77c-.3.41.07.93.53.93.04-.62-.08-1.02-.53-.93"/><path class="cls-5" d="m38.74,40.23c0,.32.01.63.02.95.68.15.54-1.01-.02-.95"/><path class="cls-5" d="m18.51,40.63c-.2-.19-.46-.3-.86-.22.05.45-.18.53-.15.95.41.52,1.14.15,1.01-.74"/><path class="cls-5" d="m26.05,40.48c.08.1-.11-.15,0,0"/><path class="cls-5" d="m33.93,39.86c-.11,0-.23,0-.34,0,0,.15,0,.31,0,.47.11,0,.23,0,.34,0,0-.16,0-.31,0-.47"/><path class="cls-5" d="m36.8,37.43c-.03.45.2.52.19.94.28,0,.57-.01.86-.02.09-.95-.47-.94-1.05-.93"/><path class="cls-5" d="m45.67,34.65c-.67.25-1-.5-1.37.03,0,.74.55.67.38,1.65.88.17,1.17-.44.99-1.68"/><path class="cls-5" d="m19.11,36.36c.12-.92-.84-.9-.69.01.35.39.22-.03.69-.01"/><path class="cls-5" d="m34.88,35.81c-.12-.15.07.1,0,0"/><path class="cls-5" d="m10.19,36.3c.07.1-.11-.15,0,0"/><path class="cls-5" d="m32.47,34.91c-.51-.34-.48,1.07.01.71,0-.24,0-.47-.01-.71"/><path class="cls-5" d="m32.81,35.14c.07.1-.12-.15,0,0"/><path class="cls-5" d="m21.84,35.36c.15-1.38-.75-.09,0,0"/><path class="cls-5" d="m35.03,34.62c.13-.06.34-.01.34-.25-.13.06-.34.01-.34.25"/><path class="cls-5" d="m27.65,34.53c-.22-.93-.18.94,0,0"/><path class="cls-5" d="m10.34,35.11c.13-.06.34-.01.34-.25-.13.06-.34.01-.34.25"/><path class="cls-5" d="m48.87,31.98c-.17,0-.34,0-.52.01,0,.24,0,.47.01.71.17,0,.34,0,.52-.01,0-.24,0-.47-.01-.71"/><path class="cls-5" d="m25.9,32.43c-.11,0-.23,0-.34,0,0,.3-.22.33-.16.72.11,0,.23,0,.34,0,0-.3.21-.33.16-.72"/><path class="cls-5" d="m33.43,31.81c.4-.8-.57.59,0,0"/><path class="cls-5" d="m31.52,30.43c.11-1.44-.79-.14,0,0"/><path class="cls-5" d="m16.57,29.54c-.51-.34-.48,1.07.01.71,0-.24,0-.47-.01-.71"/><path class="cls-5" d="m49.32,28.42c-.51-.34-.48,1.07.01.71,0-.24,0-.48-.01-.71"/><path class="cls-5" d="m38.87,29.1c.4-.8-.56.58,0,0"/><path class="cls-5" d="m14.18,29.59c.4-.8-.56.58,0,0"/><path class="cls-5" d="m45.55,28.73c.23,0,.46,0,.69-.01.11-.91-.84-.89-.69.01"/><path class="cls-5" d="m32.33,28.28c-.12,0-.23,0-.35,0,0,.16,0,.31.01.47.12,0,.23,0,.34,0,0-.16,0-.32,0-.47"/><path class="cls-5" d="m17.41,28.34c-.11,0-.23,0-.34,0,0,.16,0,.32.01.47.11,0,.23,0,.34,0,0-.15,0-.31,0-.47"/><path class="cls-5" d="m37.11,27.01c-.11,0-.23,0-.34,0,0,.3-.21.33-.16.71.17,0,.34,0,.51-.01,0-.24,0-.48-.01-.71"/><path class="cls-5" d="m12.6,27.73c-.23-.3-.65-.3-.68.25.23.3.65.3.68-.25"/><path class="cls-5" d="m43.61,26.17c0,.39.02.79.02,1.18.28,0,.57-.01.86-.02,0-.39-.01-.79-.02-1.18"/><path class="cls-5" d="m38.48,26.74c-.21-.93-.18.94,0,0"/><path class="cls-5" d="m21.67,56.23c-.62.01-1.11.72-1.1,1.58.02.86.54,1.55,1.16,1.54.62-.01,1.11-.72,1.1-1.58-.02-.86-.54-1.55-1.16-1.53"/><path class="cls-5" d="m40.69,42.64c-.62.01-1.12.72-1.1,1.58.02.86.54,1.55,1.16,1.54.62-.01,1.11-.72,1.1-1.58-.02-.86-.54-1.55-1.16-1.54"/><path class="cls-5" d="m13.86,29.56c-.62.01-1.11.72-1.1,1.58.02.86.54,1.55,1.16,1.54.62-.01,1.11-.72,1.1-1.58-.02-.86-.54-1.55-1.16-1.54"/><path class="cls-5" d="m29.86,38.38c-.37,0-.66.42-.65.93.01.51.32.91.68.91.37,0,.66-.42.65-.93-.01-.51-.32-.91-.68-.91"/><path class="cls-5" d="m40.07,68.16c.37,0,.66-.42.65-.93,0-.51-.32-.91-.68-.91-.37,0-.66.43-.65.93,0,.51.32.91.68.91"/><path class="cls-5" d="m69.41,66.77c.14-.28.21-.64.15-1.19-.29,0-.57.01-.86.02-.06.81.07,1.35.71,1.17"/><path class="cls-5" d="m85.52,65.98c-.1-1.2.64-1.31.99-1.92,0-.31-.3-.21-.35-.47-.39.67-1.31-.05-2.05.51-.14,1.67.57,2.25,1.41,1.87"/><path class="cls-5" d="m69.02,64.18c-.17,0-.34,0-.51,0-.02.52.16.75.53.7,0-.24,0-.48-.01-.71"/><path class="cls-5" d="m82.22,63.92c-.12-.15.07.1,0,0"/><path class="cls-5" d="m46.04,64.39c.55-.12.99-.38.83-1.44-.81-.22-.95.43-.83,1.44"/><path class="cls-5" d="m66.08,63.05c-.04-.18-.01-.47-.18-.47,0,.31-.3.22-.34.48.25.09.3.28.52,0"/><path class="cls-5" d="m64.32,60.96c-.17,0-.34,0-.51,0-.01.59.28.74.53.94,0-.32-.01-.63-.02-.95"/><path class="cls-5" d="m77.7,60.93c.1-.87-.14-1.26-.38-1.65-.6.44-1.35.67-1.16,2.16.71.09,1.09-.24,1.53-.51"/><path class="cls-5" d="m47.99,59.15c-.78-.11-1.11.37-1,1.44.85.2,1.18-.28,1-1.44"/><path class="cls-5" d="m76.8,58.58c-.51-.34-.48,1.07.01.71,0-.24,0-.47-.01-.71"/><path class="cls-5" d="m85.89,58.4c.23.07.33.33.69.22.06-.89-.52-.72-.69-.22"/><path class="cls-5" d="m58.45,58.7c.08.1-.11-.15,0,0"/><path class="cls-5" d="m73.14,55.57c-.65-.27-1.21-1.15-2.07-.43,0,.47.02.94.03,1.42,1.03-.43.57,1.29,1.23,1.39.56-.41.82-1.21.81-2.38"/><path class="cls-5" d="m88.77,56.92c.16-.72-.39-.41-.7-.46,0,.24,0,.47.01.71.3.01.53-.06.68-.25"/><path class="cls-5" d="m73.51,57.22c-.12-.15.07.1,0,0"/><path class="cls-5" d="m52.59,57.63c-.02-1.4-1.17-.21-.34.24.03-.19.14-.28.34-.24"/><path class="cls-5" d="m80.53,56.61c-.23-.32-1.03-.39-1.02.26.22.32,1.03.39,1.02-.26"/><path class="cls-5" d="m56.69,56.61c-.29,0-.43.19-.5.48.27-.03.59.02.5-.48"/><path class="cls-5" d="m49.83,56.74c.13-.06.34-.01.34-.24-.13.06-.34.02-.34.24"/><path class="cls-5" d="m68.28,52.83c-.11,0-.23,0-.34,0,0,.16,0,.32,0,.47.12,0,.23,0,.34,0,0-.16,0-.31,0-.47"/><path class="cls-5" d="m77.65,49.8c-.05.32-.24.45-.15.95.17,0,.34,0,.51-.01.04-.54-.06-.89-.36-.94"/><path class="cls-5" d="m52.1,50.07c-.12-.15.07.1,0,0"/><path class="cls-5" d="m57.05,48.55c-.58-.6-1.35.1-1.35.97.49.48,1.54.16,1.35-.97"/><path class="cls-5" d="m50.35,48.21c-.17,0-.34,0-.52,0,0,.24,0,.47.01.71.17,0,.35,0,.52-.01,0-.24,0-.47-.01-.71"/><path class="cls-5" d="m57.99,44.51c-.52-.52-1.35.1-1.35.97.42.78,1.52.34,1.35-.97"/><path class="cls-5" d="m51.99,44.62c0-.47-.02-.95-.03-1.42-.71-.09-1.09.24-1.53.5.01.63-.07,1.39.37,1.41.25-.36.74-.4,1.19-.5"/><path class="cls-5" d="m81.45,42.15c-.04.63.25.77.7.7.16-.79-.25-.77-.7-.7"/><path class="cls-5" d="m65.32,41.99c-.22-.93-.18.94,0,0"/><path class="cls-5" d="m52.74,39.16c-.55.2-1.13.35-1.53.74-.04.87.22,1.31.38,1.89,1.34.49,1.66-1.4,1.15-2.63"/><path class="cls-5" d="m63.57,39.9c-.17,0-.35,0-.52.01,0,.23,0,.47.01.71.11,0,.23,0,.34,0,0-.3.21-.33.16-.71"/><path class="cls-5" d="m85.67,38.99c-.3.41.07.93.53.93.04-.62-.08-1.02-.53-.93"/><path class="cls-5" d="m76.74,38.45c0,.32.01.63.02.95.68.15.54-1.01-.02-.95"/><path class="cls-5" d="m56.51,38.85c-.2-.19-.46-.3-.86-.22.05.45-.18.53-.15.95.42.52,1.14.15,1.01-.74"/><path class="cls-5" d="m64.05,38.7c.08.1-.11-.15,0,0"/><path class="cls-5" d="m71.93,38.08c-.11,0-.23,0-.34,0,0,.15,0,.31.01.47.11,0,.23,0,.34,0,0-.16,0-.31,0-.47"/><path class="cls-5" d="m74.8,35.65c-.03.45.2.52.19.94.28,0,.57-.01.86-.02.1-.95-.47-.94-1.05-.93"/><path class="cls-5" d="m83.67,32.87c-.67.25-1-.5-1.37.03,0,.74.55.67.38,1.65.88.17,1.17-.44,1-1.68"/><path class="cls-5" d="m57.11,34.58c.12-.92-.84-.9-.69.01.35.39.22-.03.69-.01"/><path class="cls-5" d="m72.88,34.03c-.12-.15.07.1,0,0"/><path class="cls-5" d="m48.19,34.52c.07.1-.11-.15,0,0"/><path class="cls-5" d="m70.47,33.13c-.51-.34-.48,1.07.01.71,0-.24,0-.47-.01-.71"/><path class="cls-5" d="m70.81,33.36c.07.1-.12-.15,0,0"/><path class="cls-5" d="m59.84,33.58c.15-1.38-.74-.09,0,0"/><path class="cls-5" d="m73.03,32.84c.13-.06.34-.01.34-.25-.13.06-.34.01-.34.25"/><path class="cls-5" d="m65.65,32.75c-.22-.93-.18.94,0,0"/><path class="cls-5" d="m48.34,33.33c.13-.06.34-.01.34-.25-.13.06-.34.01-.34.25"/><path class="cls-5" d="m86.87,30.2c-.17,0-.34,0-.52.01,0,.24,0,.47.01.71.17,0,.34,0,.52-.01,0-.24,0-.47-.01-.71"/><path class="cls-5" d="m63.9,30.65c-.11,0-.23,0-.34,0,0,.3-.22.33-.16.72.11,0,.23,0,.34,0,0-.3.21-.33.16-.72"/><path class="cls-5" d="m71.43,30.03c.4-.8-.57.59,0,0"/><path class="cls-5" d="m69.52,28.65c.11-1.44-.79-.14,0,0"/><path class="cls-5" d="m54.57,27.76c-.51-.34-.48,1.07.01.71,0-.24,0-.47-.01-.71"/><path class="cls-5" d="m87.32,26.64c-.51-.34-.48,1.07.01.71,0-.24,0-.48-.01-.71"/><path class="cls-5" d="m76.87,27.32c.4-.8-.56.58,0,0"/><path class="cls-5" d="m52.18,27.81c.4-.8-.56.58,0,0"/><path class="cls-5" d="m83.55,26.95c.23,0,.46,0,.69-.01.12-.91-.84-.89-.69.01"/><path class="cls-5" d="m70.33,26.5c-.12,0-.23,0-.35,0,0,.16,0,.31.01.47.12,0,.23,0,.35,0,0-.16,0-.32,0-.47"/><path class="cls-5" d="m55.41,26.56c-.11,0-.23,0-.34,0,0,.16,0,.32,0,.47.11,0,.23,0,.34,0,0-.15,0-.31,0-.47"/><path class="cls-5" d="m75.11,25.23c-.11,0-.23,0-.34,0,0,.3-.21.33-.16.71.17,0,.34,0,.51-.01,0-.24,0-.48-.01-.71"/><path class="cls-5" d="m50.6,25.95c-.24-.3-.65-.3-.68.25.23.3.65.3.68-.25"/><path class="cls-5" d="m81.61,24.39c0,.39.02.79.02,1.18.28,0,.57-.01.86-.02,0-.39-.01-.79-.02-1.18"/><path class="cls-5" d="m76.48,24.96c-.21-.93-.18.94,0,0"/><path class="cls-5" d="m59.67,54.45c-.62.01-1.12.72-1.1,1.58.02.86.54,1.55,1.16,1.54.62-.01,1.11-.72,1.1-1.58-.02-.86-.54-1.55-1.16-1.53"/><path class="cls-5" d="m78.69,40.86c-.62.01-1.11.72-1.1,1.58s.54,1.55,1.16,1.54c.62-.01,1.12-.72,1.1-1.58-.02-.86-.54-1.55-1.16-1.54"/><path class="cls-5" d="m51.86,27.78c-.62.01-1.12.72-1.1,1.58.02.86.54,1.55,1.16,1.54.62-.01,1.11-.72,1.1-1.58-.02-.86-.54-1.55-1.16-1.54"/><path class="cls-5" d="m67.86,36.6c-.37,0-.66.42-.65.93.01.51.32.91.68.91.37,0,.66-.42.65-.93,0-.51-.32-.91-.68-.91"/><path class="cls-5" d="m78.07,66.38c.37,0,.66-.42.65-.93-.01-.51-.32-.91-.68-.91-.37,0-.66.43-.65.93,0,.51.32.91.68.91"/><path class="cls-5" d="m85.41,85.77c.14-.28.21-.64.15-1.18-.29,0-.57.01-.86.02-.06.81.07,1.35.71,1.17"/><path class="cls-5" d="m101.52,84.98c-.1-1.2.64-1.31.99-1.92,0-.31-.3-.21-.35-.47-.39.67-1.31-.05-2.05.51-.14,1.67.57,2.25,1.41,1.87"/><path class="cls-5" d="m85.02,83.18c-.17,0-.34,0-.51.01-.02.52.16.75.53.7,0-.24,0-.48-.01-.71"/><path class="cls-5" d="m98.22,82.92c-.12-.15.07.1,0,0"/><path class="cls-5" d="m62.04,83.39c.55-.11.99-.38.83-1.44-.81-.22-.95.43-.83,1.44"/><path class="cls-5" d="m82.08,82.05c-.04-.18-.01-.47-.18-.47,0,.31-.3.22-.34.48.25.09.3.28.52-.01"/><path class="cls-5" d="m80.32,79.96c-.17,0-.34,0-.51.01-.01.59.28.74.53.94,0-.32-.01-.63-.02-.95"/><path class="cls-5" d="m93.7,79.93c.1-.86-.14-1.26-.38-1.65-.6.44-1.35.67-1.16,2.16.71.09,1.09-.24,1.53-.5"/><path class="cls-5" d="m63.99,78.15c-.78-.11-1.11.37-1,1.44.85.2,1.18-.28,1-1.44"/><path class="cls-5" d="m92.8,77.58c-.51-.34-.48,1.07.01.71,0-.24,0-.47-.01-.71"/><path class="cls-5" d="m101.89,77.4c.23.07.33.33.69.22.06-.89-.52-.72-.69-.22"/><path class="cls-5" d="m74.45,77.7c.08.1-.11-.15,0,0"/><path class="cls-5" d="m89.14,74.57c-.65-.27-1.21-1.15-2.07-.43,0,.47.02.94.03,1.42,1.03-.43.57,1.29,1.23,1.39.56-.41.82-1.21.81-2.38"/><path class="cls-5" d="m104.77,75.92c.16-.72-.39-.41-.7-.46,0,.24,0,.47.01.71.3.01.53-.06.68-.25"/><path class="cls-5" d="m89.51,76.22c-.12-.15.07.1,0,0"/><path class="cls-5" d="m68.59,76.63c-.02-1.4-1.18-.21-.34.24.03-.19.14-.28.34-.24"/><path class="cls-5" d="m96.53,75.61c-.23-.32-1.03-.39-1.02.26.22.32,1.03.39,1.02-.26"/><path class="cls-5" d="m72.69,75.61c-.29,0-.43.19-.5.48.27-.03.59.02.5-.48"/><path class="cls-5" d="m65.83,75.74c.13-.06.34-.01.34-.24-.13.06-.34.02-.34.24"/><path class="cls-5" d="m84.28,71.83c-.11,0-.23,0-.34,0,0,.16,0,.32,0,.47.12,0,.23,0,.34,0,0-.16,0-.31,0-.47"/><path class="cls-5" d="m93.65,68.8c-.05.32-.24.45-.15.95.17,0,.34,0,.51-.01.04-.54-.06-.89-.36-.94"/><path class="cls-5" d="m68.1,69.07c-.12-.15.07.1,0,0"/><path class="cls-5" d="m73.05,67.55c-.58-.6-1.35.1-1.35.97.48.48,1.54.16,1.35-.97"/><path class="cls-5" d="m66.35,67.21c-.17,0-.34,0-.52,0,0,.24,0,.47.01.71.17,0,.35,0,.52-.01,0-.24,0-.47-.01-.71"/><path class="cls-5" d="m74,63.51c-.52-.52-1.35.1-1.36.97.42.78,1.53.34,1.36-.97"/><path class="cls-5" d="m67.99,63.62c0-.47-.02-.95-.03-1.42-.71-.09-1.09.24-1.53.51.01.63-.07,1.4.37,1.41.25-.36.74-.39,1.19-.5"/><path class="cls-5" d="m97.45,61.15c-.04.63.25.77.7.7.16-.79-.25-.77-.7-.7"/><path class="cls-5" d="m81.32,60.99c-.22-.93-.18.94,0,0"/><path class="cls-5" d="m68.74,58.16c-.55.2-1.13.35-1.53.74-.04.87.22,1.31.38,1.89,1.34.49,1.66-1.41,1.14-2.63"/><path class="cls-5" d="m79.57,58.9c-.18,0-.35,0-.52,0,0,.23.01.47.01.71.11,0,.23,0,.34,0,0-.3.21-.33.16-.71"/><path class="cls-5" d="m101.67,57.99c-.3.41.07.93.53.94.04-.62-.08-1.02-.53-.94"/><path class="cls-5" d="m92.74,57.45c0,.32.01.63.02.95.68.15.54-1.01-.02-.95"/><path class="cls-5" d="m72.51,57.85c-.2-.19-.46-.3-.86-.22.05.45-.18.53-.15.95.42.52,1.14.15,1.01-.74"/><path class="cls-5" d="m80.05,57.7c.08.1-.11-.15,0,0"/><path class="cls-5" d="m87.93,57.08c-.11,0-.23,0-.34,0,0,.15,0,.31.01.47.11,0,.23,0,.34,0,0-.15,0-.31,0-.47"/><path class="cls-5" d="m90.8,54.65c-.03.45.2.52.19.94.28,0,.57-.01.86-.02.1-.95-.47-.94-1.05-.93"/><path class="cls-5" d="m99.67,51.87c-.67.25-1-.51-1.37.03,0,.74.55.67.38,1.65.88.17,1.17-.44,1-1.68"/><path class="cls-5" d="m73.11,53.58c.12-.92-.84-.9-.69.01.35.39.22-.03.69-.01"/><path class="cls-5" d="m88.88,53.03c-.12-.15.07.1,0,0"/><path class="cls-5" d="m64.19,53.52c.07.1-.11-.15,0,0"/><path class="cls-5" d="m86.47,52.13c-.51-.34-.48,1.07.01.71,0-.24,0-.47-.01-.71"/><path class="cls-5" d="m86.81,52.36c.07.1-.12-.15,0,0"/><path class="cls-5" d="m75.84,52.58c.15-1.38-.75-.09,0,0"/><path class="cls-5" d="m89.03,51.84c.13-.06.34-.01.34-.24-.13.06-.34.01-.34.24"/><path class="cls-5" d="m81.65,51.75c-.22-.93-.18.94,0,0"/><path class="cls-5" d="m64.34,52.33c.13-.06.34-.01.34-.24-.13.06-.34.01-.34.24"/><path class="cls-5" d="m102.87,49.2c-.17,0-.34,0-.52,0,0,.24,0,.47.01.71.17,0,.34,0,.52-.01,0-.24,0-.47-.01-.71"/><path class="cls-5" d="m79.9,49.65c-.11,0-.23,0-.34,0,0,.3-.21.33-.15.72.11,0,.23,0,.34,0,0-.3.21-.33.16-.72"/><path class="cls-5" d="m87.43,49.03c.4-.8-.57.59,0,0"/><path class="cls-5" d="m85.52,47.65c.11-1.44-.79-.14,0,0"/><path class="cls-5" d="m70.57,46.76c-.51-.34-.48,1.07.01.71,0-.24,0-.47-.01-.71"/><path class="cls-5" d="m103.32,45.64c-.51-.34-.48,1.07.01.71,0-.24,0-.48-.01-.71"/><path class="cls-5" d="m92.87,46.32c.4-.8-.56.58,0,0"/><path class="cls-5" d="m68.18,46.81c.4-.8-.56.58,0,0"/><path class="cls-5" d="m99.55,45.95c.23,0,.46,0,.69-.01.12-.91-.84-.89-.69.01"/><path class="cls-5" d="m86.33,45.5c-.12,0-.23,0-.35,0,0,.16,0,.31.01.47.12,0,.23,0,.35,0,0-.16,0-.32,0-.47"/><path class="cls-5" d="m71.41,45.56c-.11,0-.23,0-.34,0,0,.16,0,.32.01.47.11,0,.23,0,.34,0,0-.15,0-.31,0-.47"/><path class="cls-5" d="m91.11,44.23c-.11,0-.23,0-.34,0,0,.3-.21.33-.16.71.17,0,.34,0,.51-.01,0-.24,0-.48-.01-.71"/><path class="cls-5" d="m66.6,44.95c-.24-.3-.65-.3-.68.25.23.3.65.3.68-.25"/><path class="cls-5" d="m97.61,43.39c0,.39.02.79.02,1.18.28,0,.57-.01.86-.02,0-.39-.01-.79-.02-1.18"/><path class="cls-5" d="m92.48,43.96c-.21-.93-.18.94,0,0"/><path class="cls-5" d="m75.67,73.45c-.62.01-1.11.72-1.1,1.58.02.86.54,1.55,1.16,1.54.62-.01,1.12-.72,1.1-1.58-.02-.86-.54-1.55-1.16-1.53"/><path class="cls-5" d="m94.69,59.86c-.62.01-1.11.72-1.1,1.58.02.86.54,1.55,1.16,1.54.62-.01,1.12-.72,1.1-1.58-.02-.86-.54-1.55-1.16-1.53"/><path class="cls-5" d="m67.86,46.78c-.62.01-1.11.72-1.1,1.58.02.86.54,1.55,1.16,1.54.62-.01,1.11-.72,1.1-1.58-.02-.86-.54-1.55-1.16-1.53"/><path class="cls-5" d="m83.86,55.6c-.37,0-.66.42-.65.93.01.51.32.91.68.91.37,0,.66-.43.65-.93,0-.51-.32-.91-.68-.91"/><path class="cls-5" d="m94.07,85.38c.37,0,.66-.42.65-.93-.01-.51-.32-.91-.68-.91-.37,0-.66.42-.65.93,0,.51.32.91.68.91"/><path class="cls-5" d="m76.48,106.72c.14-.28.21-.64.15-1.18-.29,0-.57.01-.86.02-.06.81.07,1.35.71,1.17"/><path class="cls-5" d="m92.59,105.93c-.1-1.2.64-1.3.99-1.92,0-.31-.3-.21-.35-.47-.39.67-1.31-.05-2.05.51-.14,1.67.57,2.25,1.41,1.87"/><path class="cls-5" d="m76.09,104.12c-.17,0-.34,0-.51.01-.02.52.16.75.53.7,0-.24,0-.48-.01-.71"/><path class="cls-5" d="m89.29,103.86c-.12-.15.07.1,0,0"/><path class="cls-5" d="m53.11,104.34c.55-.11.99-.38.83-1.44-.81-.22-.95.43-.83,1.44"/><path class="cls-5" d="m73.15,103c-.04-.18-.01-.47-.18-.47,0,.31-.3.22-.34.48.25.09.3.28.52-.01"/><path class="cls-5" d="m71.4,100.9c-.17,0-.34,0-.51.01-.01.59.28.73.53.94,0-.32-.01-.63-.02-.95"/><path class="cls-5" d="m84.77,100.87c.1-.86-.14-1.26-.38-1.65-.6.44-1.35.67-1.16,2.16.71.09,1.09-.24,1.53-.51"/><path class="cls-5" d="m55.06,99.09c-.78-.11-1.11.37-1,1.44.85.2,1.18-.28,1-1.44"/><path class="cls-5" d="m83.87,98.52c-.51-.34-.48,1.07.01.71,0-.24,0-.47-.01-.71"/><path class="cls-5" d="m92.96,98.34c.23.07.33.33.69.23.06-.89-.52-.72-.69-.23"/><path class="cls-5" d="m65.52,98.65c.08.1-.11-.15,0,0"/><path class="cls-5" d="m80.21,95.52c-.65-.27-1.21-1.15-2.07-.43,0,.47.02.94.03,1.42,1.03-.43.57,1.29,1.23,1.4.56-.41.82-1.21.81-2.39"/><path class="cls-5" d="m95.85,96.87c.16-.72-.39-.41-.7-.46,0,.24,0,.47.01.71.3.01.53-.06.68-.25"/><path class="cls-5" d="m80.59,97.17c-.12-.15.07.1,0,0"/><path class="cls-5" d="m59.66,97.58c-.02-1.4-1.17-.21-.34.24.03-.19.14-.28.34-.24"/><path class="cls-5" d="m87.6,96.56c-.23-.32-1.03-.39-1.02.26.22.32,1.03.39,1.02-.26"/><path class="cls-5" d="m63.76,96.55c-.29,0-.43.19-.5.48.27-.03.59.02.5-.48"/><path class="cls-5" d="m56.9,96.69c.13-.06.34-.01.34-.24-.13.06-.34.02-.34.24"/><path class="cls-5" d="m75.35,92.77c-.11,0-.23,0-.34,0,0,.16,0,.32,0,.47.12,0,.23,0,.34,0,0-.16,0-.32,0-.47"/><path class="cls-5" d="m84.73,89.75c-.05.32-.24.45-.15.95.17,0,.34,0,.51-.01.04-.54-.06-.89-.36-.94"/><path class="cls-5" d="m59.17,90.01c-.12-.15.07.1,0,0"/><path class="cls-5" d="m64.12,88.49c-.58-.6-1.35.09-1.35.97.49.48,1.54.16,1.35-.97"/><path class="cls-5" d="m57.42,88.15c-.17,0-.34,0-.52.01,0,.24,0,.47.01.71.17,0,.35,0,.52-.01,0-.24,0-.47-.01-.71"/><path class="cls-5" d="m65.07,84.45c-.52-.52-1.35.09-1.35.97.41.78,1.52.34,1.35-.97"/><path class="cls-5" d="m59.07,84.57c0-.48-.02-.95-.03-1.42-.71-.09-1.09.24-1.53.5.01.63-.07,1.4.37,1.41.25-.36.74-.4,1.19-.5"/><path class="cls-5" d="m88.52,82.09c-.04.63.25.77.7.7.16-.79-.25-.77-.7-.7"/><path class="cls-5" d="m72.39,81.94c-.22-.93-.18.94,0,0"/><path class="cls-5" d="m59.81,79.11c-.55.2-1.13.35-1.53.74-.04.87.22,1.31.38,1.89,1.34.49,1.66-1.4,1.15-2.63"/><path class="cls-5" d="m70.64,79.84c-.18,0-.35,0-.52.01,0,.23.01.47.01.71.11,0,.23,0,.34,0,0-.3.21-.33.16-.71"/><path class="cls-5" d="m92.74,78.93c-.3.41.07.93.53.93.04-.62-.08-1.02-.53-.93"/><path class="cls-5" d="m83.82,78.4c0,.32.01.63.02.95.68.15.54-1.01-.02-.95"/><path class="cls-5" d="m63.58,78.79c-.2-.19-.46-.3-.86-.22.05.45-.18.53-.15.95.42.52,1.14.15,1.01-.74"/><path class="cls-5" d="m71.13,78.65c.08.1-.11-.15,0,0"/><path class="cls-5" d="m79,78.02c-.11,0-.23,0-.34,0,0,.15,0,.31.01.47.11,0,.23,0,.34,0,0-.15,0-.31,0-.47"/><path class="cls-5" d="m81.87,75.59c-.03.45.2.52.19.94.28,0,.57-.01.86-.02.1-.95-.47-.94-1.05-.93"/><path class="cls-5" d="m90.74,72.81c-.67.25-1-.51-1.37.03,0,.74.55.67.38,1.65.88.17,1.17-.44,1-1.68"/><path class="cls-5" d="m64.18,74.52c.12-.92-.84-.9-.69.01.35.39.22-.03.69-.01"/><path class="cls-5" d="m79.96,73.98c-.12-.15.07.1,0,0"/><path class="cls-5" d="m55.26,74.46c.07.1-.11-.15,0,0"/><path class="cls-5" d="m77.54,73.08c-.51-.34-.48,1.07.01.71,0-.24,0-.47-.01-.71"/><path class="cls-5" d="m77.88,73.31c.07.1-.12-.15,0,0"/><path class="cls-5" d="m66.91,73.52c.15-1.38-.75-.09,0,0"/><path class="cls-5" d="m80.1,72.79c.13-.06.34-.01.34-.24-.13.06-.34.01-.34.24"/><path class="cls-5" d="m72.72,72.7c-.22-.93-.18.94,0,0"/><path class="cls-5" d="m55.41,73.28c.13-.06.34-.01.34-.24-.13.06-.34.01-.34.24"/><path class="cls-5" d="m93.95,70.15c-.17,0-.34,0-.52,0,0,.24,0,.47.01.71.17,0,.34,0,.52-.01,0-.24,0-.47-.01-.71"/><path class="cls-5" d="m70.97,70.6c-.11,0-.23,0-.34,0,0,.3-.21.33-.15.72.11,0,.23,0,.34,0,0-.3.21-.33.16-.72"/><path class="cls-5" d="m78.5,69.98c.4-.8-.57.59,0,0"/><path class="cls-5" d="m76.59,68.6c.11-1.44-.79-.14,0,0"/><path class="cls-5" d="m61.65,67.71c-.51-.34-.48,1.07.01.71,0-.24,0-.47-.01-.71"/><path class="cls-5" d="m94.39,66.59c-.51-.34-.48,1.07.01.71,0-.24,0-.48-.01-.71"/><path class="cls-5" d="m83.94,67.27c.4-.8-.56.58,0,0"/><path class="cls-5" d="m59.25,67.76c.4-.8-.56.58,0,0"/><path class="cls-5" d="m90.62,66.9c.23,0,.46,0,.69-.01.12-.91-.84-.9-.69.01"/><path class="cls-5" d="m77.41,66.45c-.12,0-.23,0-.35,0,0,.16,0,.31.01.47.12,0,.23,0,.35,0,0-.16,0-.32,0-.47"/><path class="cls-5" d="m62.48,66.51c-.11,0-.23,0-.34,0,0,.16,0,.32,0,.47.11,0,.23,0,.34,0,0-.15,0-.31,0-.47"/><path class="cls-5" d="m82.18,65.17c-.11,0-.23,0-.34,0,0,.3-.21.33-.16.71.17,0,.34,0,.51-.01,0-.24,0-.48-.01-.71"/><path class="cls-5" d="m57.67,65.89c-.24-.3-.65-.3-.68.25.23.3.65.3.68-.25"/><path class="cls-5" d="m88.68,64.33c0,.39.02.79.02,1.18.28,0,.57-.01.86-.02,0-.4-.01-.79-.02-1.18"/><path class="cls-5" d="m83.55,64.91c-.21-.93-.18.94,0,0"/><path class="cls-5" d="m66.74,94.4c-.62.01-1.11.72-1.1,1.58.02.86.54,1.55,1.16,1.54.62-.01,1.12-.72,1.1-1.58-.02-.86-.54-1.55-1.16-1.53"/><path class="cls-5" d="m85.77,80.8c-.62.01-1.11.72-1.1,1.58s.54,1.55,1.16,1.54c.62-.01,1.12-.72,1.1-1.58-.02-.86-.54-1.55-1.16-1.53"/><path class="cls-5" d="m58.93,67.72c-.62.01-1.12.72-1.1,1.58.02.86.54,1.55,1.16,1.54.62-.01,1.11-.72,1.1-1.58-.02-.86-.54-1.55-1.16-1.53"/><path class="cls-5" d="m74.93,76.55c-.37,0-.66.42-.65.93.01.51.32.91.68.91.37,0,.66-.43.65-.93,0-.51-.32-.91-.68-.91"/><path class="cls-5" d="m85.14,106.32c.37,0,.66-.43.65-.93-.01-.51-.32-.91-.68-.91-.37,0-.66.42-.65.93,0,.51.32.91.68.91"/><path class="cls-5" d="m64.41,110.26c.14-.28.21-.64.15-1.18-.29,0-.57.01-.86.02-.06.81.08,1.35.71,1.17"/><path class="cls-5" d="m80.52,109.47c-.1-1.2.64-1.3.99-1.92,0-.31-.3-.21-.35-.46-.39.67-1.31-.05-2.05.51-.14,1.67.57,2.25,1.41,1.87"/><path class="cls-5" d="m64.02,107.67c-.17,0-.34,0-.51,0-.02.52.16.75.53.7,0-.24,0-.48-.01-.71"/><path class="cls-5" d="m77.22,107.41c-.12-.15.07.1,0,0"/><path class="cls-5" d="m41.04,107.88c.55-.12.99-.38.83-1.44-.81-.22-.95.43-.83,1.44"/><path class="cls-5" d="m61.08,106.54c-.04-.18-.01-.47-.18-.47,0,.32-.3.22-.34.48.25.09.3.28.52-.01"/><path class="cls-5" d="m59.32,104.45c-.17,0-.34,0-.51.01-.01.59.28.73.53.94,0-.32-.01-.63-.02-.95"/><path class="cls-5" d="m72.7,104.42c.1-.87-.14-1.26-.38-1.65-.6.44-1.35.67-1.16,2.16.71.09,1.09-.24,1.53-.51"/><path class="cls-5" d="m42.99,102.64c-.78-.11-1.11.37-1,1.44.85.2,1.18-.28,1-1.44"/><path class="cls-5" d="m71.8,102.07c-.51-.34-.48,1.07.01.71,0-.24,0-.47-.01-.71"/><path class="cls-5" d="m80.89,101.89c.23.07.33.33.69.23.06-.89-.52-.72-.69-.23"/><path class="cls-5" d="m53.45,102.19c.08.1-.11-.15,0,0"/><path class="cls-5" d="m68.14,99.06c-.65-.27-1.21-1.15-2.07-.43,0,.47.02.94.03,1.42,1.03-.43.57,1.29,1.23,1.4.56-.41.82-1.21.81-2.39"/><path class="cls-5" d="m83.77,100.41c.16-.72-.39-.41-.7-.46,0,.24,0,.47.01.71.3.01.53-.06.68-.25"/><path class="cls-5" d="m68.51,100.71c-.12-.15.07.1,0,0"/><path class="cls-5" d="m47.59,101.12c-.02-1.4-1.17-.21-.34.24.03-.19.14-.28.34-.24"/><path class="cls-5" d="m75.53,100.1c-.23-.32-1.03-.39-1.02.26.22.32,1.03.39,1.02-.26"/><path class="cls-5" d="m51.69,100.1c-.29,0-.43.19-.5.48.27-.03.59.02.5-.48"/><path class="cls-5" d="m44.83,100.23c.13-.06.34-.01.34-.24-.13.06-.34.02-.34.24"/><path class="cls-5" d="m63.28,96.32c-.11,0-.23,0-.34,0,0,.16,0,.32,0,.47.12,0,.23,0,.34,0,0-.16,0-.31,0-.47"/><path class="cls-5" d="m72.65,93.29c-.05.32-.24.45-.15.95.17,0,.34,0,.51-.01.04-.54-.06-.89-.36-.94"/><path class="cls-5" d="m47.1,93.56c-.12-.15.07.1,0,0"/><path class="cls-5" d="m52.05,92.04c-.58-.6-1.35.09-1.35.97.49.48,1.54.16,1.35-.97"/><path class="cls-5" d="m45.35,91.7c-.17,0-.34,0-.52.01,0,.24,0,.47.01.71.17,0,.35,0,.52-.01,0-.24,0-.47-.01-.71"/><path class="cls-5" d="m52.99,87.99c-.52-.52-1.35.09-1.35.97.42.78,1.52.34,1.35-.97"/><path class="cls-5" d="m46.99,88.11c0-.48-.02-.95-.03-1.42-.71-.09-1.09.24-1.53.5.01.63-.07,1.4.37,1.41.25-.36.74-.4,1.19-.5"/><path class="cls-5" d="m76.45,85.63c-.04.63.25.77.7.7.16-.79-.25-.77-.7-.7"/><path class="cls-5" d="m60.32,85.48c-.22-.93-.18.94,0,0"/><path class="cls-5" d="m47.74,82.65c-.55.2-1.13.35-1.53.74-.04.87.22,1.31.38,1.89,1.34.49,1.66-1.4,1.15-2.63"/><path class="cls-5" d="m58.57,83.39c-.17,0-.35,0-.52.01,0,.23,0,.47.01.71.11,0,.23,0,.34,0,0-.3.21-.33.16-.71"/><path class="cls-5" d="m80.67,82.48c-.3.41.07.93.53.93.04-.62-.08-1.02-.53-.93"/><path class="cls-5" d="m71.74,81.94c0,.32.01.63.02.95.68.15.54-1.01-.02-.95"/><path class="cls-5" d="m51.51,82.34c-.2-.19-.46-.3-.86-.22.05.45-.18.53-.15.95.42.52,1.14.15,1.01-.74"/><path class="cls-5" d="m59.05,82.19c.08.1-.11-.15,0,0"/><path class="cls-5" d="m66.93,81.57c-.11,0-.23,0-.34,0,0,.16,0,.31.01.47.11,0,.23,0,.34,0,0-.15,0-.31,0-.47"/><path class="cls-5" d="m69.8,79.14c-.03.45.2.52.19.94.28,0,.57-.01.86-.02.1-.95-.47-.94-1.05-.93"/><path class="cls-5" d="m78.67,76.36c-.67.25-1-.51-1.37.03,0,.74.55.67.38,1.65.88.17,1.17-.44,1-1.68"/><path class="cls-5" d="m52.11,78.07c.12-.92-.84-.9-.69.01.35.39.22-.03.69-.01"/><path class="cls-5" d="m67.88,77.52c-.12-.15.07.1,0,0"/><path class="cls-5" d="m43.19,78.01c.07.1-.11-.15,0,0"/><path class="cls-5" d="m65.47,76.62c-.51-.34-.48,1.07.01.71,0-.24,0-.47-.01-.71"/><path class="cls-5" d="m65.81,76.85c.07.1-.12-.15,0,0"/><path class="cls-5" d="m54.84,77.07c.15-1.38-.74-.09,0,0"/><path class="cls-5" d="m68.03,76.33c.13-.06.34-.01.34-.24-.13.06-.34.01-.34.24"/><path class="cls-5" d="m60.65,76.24c-.22-.93-.18.94,0,0"/><path class="cls-5" d="m43.34,76.82c.13-.06.34-.01.34-.24-.13.06-.34.01-.34.24"/><path class="cls-5" d="m81.87,73.69c-.17,0-.34,0-.52,0,0,.24,0,.47.01.71.17,0,.34,0,.52-.01,0-.24,0-.47-.01-.71"/><path class="cls-5" d="m58.9,74.14c-.11,0-.23,0-.34,0,0,.3-.22.33-.16.72.11,0,.23,0,.34,0,0-.3.21-.33.16-.72"/><path class="cls-5" d="m66.43,73.52c.4-.8-.57.59,0,0"/><path class="cls-5" d="m64.52,72.14c.11-1.44-.79-.14,0,0"/><path class="cls-5" d="m49.57,71.25c-.51-.34-.48,1.07.01.71,0-.24,0-.47-.01-.71"/><path class="cls-5" d="m82.32,70.13c-.51-.34-.48,1.07.01.71,0-.24,0-.48-.01-.71"/><path class="cls-5" d="m71.87,70.81c.4-.8-.56.58,0,0"/><path class="cls-5" d="m47.18,71.3c.4-.8-.56.58,0,0"/><path class="cls-5" d="m78.55,70.44c.23,0,.46,0,.69-.01.12-.91-.84-.9-.69.01"/><path class="cls-5" d="m65.33,69.99c-.12,0-.23,0-.35,0,0,.16,0,.31.01.47.12,0,.23,0,.35,0,0-.16,0-.32,0-.47"/><path class="cls-5" d="m50.41,70.05c-.11,0-.23,0-.34,0,0,.16,0,.32,0,.47.11,0,.23,0,.34,0,0-.15,0-.31,0-.47"/><path class="cls-5" d="m70.11,68.72c-.11,0-.23,0-.34,0,0,.3-.21.33-.16.71.17,0,.34,0,.51-.01,0-.24,0-.48-.01-.71"/><path class="cls-5" d="m45.6,69.43c-.24-.3-.65-.3-.68.25.23.3.65.3.68-.25"/><path class="cls-5" d="m76.61,67.88c0,.39.02.79.02,1.18.28,0,.57-.01.86-.02,0-.4-.01-.79-.02-1.18"/><path class="cls-5" d="m71.48,68.45c-.21-.93-.18.94,0,0"/><path class="cls-5" d="m54.67,97.94c-.62.01-1.12.72-1.1,1.58.02.86.54,1.55,1.16,1.54.62-.01,1.11-.72,1.1-1.58-.02-.86-.54-1.55-1.16-1.53"/><path class="cls-5" d="m73.69,84.35c-.62.01-1.11.72-1.1,1.58s.54,1.55,1.16,1.54c.62-.01,1.12-.72,1.1-1.58-.02-.86-.54-1.55-1.16-1.53"/><path class="cls-5" d="m46.86,71.27c-.62.01-1.12.72-1.1,1.58.02.86.54,1.55,1.16,1.54.62-.01,1.11-.72,1.1-1.58-.02-.86-.54-1.55-1.16-1.53"/><path class="cls-5" d="m62.86,80.09c-.37,0-.66.42-.65.93,0,.51.32.91.68.91.37,0,.66-.42.65-.93,0-.51-.32-.91-.68-.91"/><path class="cls-5" d="m73.07,109.87c.37,0,.66-.43.65-.93-.01-.51-.32-.91-.68-.91-.37,0-.66.42-.65.93,0,.51.32.91.68.91"/></g></g></svg>