<?xml version="1.0" encoding="UTF-8" standalone="no"?><!DOCTYPE svg PUBLIC "-//W3C//DTD SVG 1.1//EN" "http://www.w3.org/Graphics/SVG/1.1/DTD/svg11.dtd"><svg width="100%" height="100%" viewBox="0 0 11825 2388" version="1.1" xmlns="http://www.w3.org/2000/svg" xmlns:xlink="http://www.w3.org/1999/xlink" xml:space="preserve" xmlns:serif="http://www.serif.com/" style="fill-rule:evenodd;clip-rule:evenodd;stroke-linejoin:round;stroke-miterlimit:1.41421;"><g><g><path d="M657.978,2286.89c552.256,114.41 1207.81,-276.388 1463.89,-872.915c256.076,-596.527 15.972,-1172.93 -536.458,-1287.32c-552.43,-114.41 -1207.85,276.44 -1463.96,872.915c-256.111,596.527 -15.937,1172.91 536.527,1287.32l0.001,0Z" style="fill:#e71835;fill-rule:nonzero;"/><path d="M657.978,2286.89l-4.687,10.764c279.687,57.986 585.415,-12.153 853.123,-171.701c267.535,-159.722 497.569,-408.853 626.735,-709.721c129.167,-300.868 133.333,-596.874 35.243,-832.186c-98.09,-235.364 -298.61,-410.329 -578.297,-468.246c-279.861,-57.934 -585.59,12.153 -853.124,171.788c-267.725,159.635 -497.655,408.836 -626.839,709.721c-129.167,300.868 -133.281,596.874 -35.191,832.117c98.038,235.416 298.593,410.416 578.35,468.228l4.687,-10.764l4.514,-10.764c-272.604,-56.597 -468.333,-226.909 -564.444,-457.464c-96.076,-230.555 -92.239,-521.006 34.705,-816.665c126.944,-295.677 352.777,-540.191 614.982,-696.51c262.152,-156.336 560.242,-224.461 832.985,-168.003c272.742,56.476 468.402,226.892 564.582,457.43c96.007,230.52 92.187,520.971 -34.722,816.63c-126.91,295.66 -352.777,540.277 -614.93,696.527c-262.326,156.25 -560.415,224.479 -833.158,168.055l-4.514,10.764Z" style="fill:#e71835;fill-rule:nonzero;"/><path d="M657.978,2286.89l-4.687,10.764c279.687,57.986 585.415,-12.153 853.123,-171.701c267.535,-159.722 497.569,-408.853 626.735,-709.721c129.167,-300.868 133.333,-596.874 35.243,-832.186c-98.09,-235.364 -298.61,-410.329 -578.297,-468.246c-279.861,-57.934 -585.59,12.153 -853.124,171.788c-267.725,159.635 -497.655,408.836 -626.839,709.721c-129.167,300.868 -133.281,596.874 -35.191,832.117c98.038,235.416 298.593,410.416 578.35,468.228l4.687,-10.764l4.514,-10.764c-272.604,-56.597 -468.333,-226.909 -564.444,-457.464c-96.076,-230.555 -92.239,-521.006 34.705,-816.665c126.944,-295.677 352.777,-540.191 614.982,-696.51c262.152,-156.336 560.242,-224.461 832.985,-168.003c272.742,56.476 468.402,226.892 564.582,457.43c96.007,230.52 92.187,520.971 -34.722,816.63c-126.91,295.66 -352.777,540.277 -614.93,696.527c-262.326,156.25 -560.415,224.479 -833.158,168.055l-4.514,10.764Z" style="fill:#e71835;fill-rule:nonzero;"/><path d="M341.208,1805.64c143.177,-10.243 295.989,-116.666 350.624,-138.021c63.542,-24.826 79.514,-10.243 108.16,-20.833c32.986,-12.153 48.09,-43.055 84.027,-48.611c35.938,-5.555 77.257,8.333 77.257,8.333c0,0 -10.937,-266.666 8.334,-427.082c19.27,-160.59 136.805,-341.319 136.805,-341.319c0,0 -41.32,-23.785 -80.035,-5.729c-36.632,17.014 -70.659,63.541 -70.659,63.541c0,0 -3.299,-31.076 7.639,-71.701c7.291,-26.736 31.076,-51.389 31.076,-51.389c0,0 -67.882,-20.833 -134.028,0c-66.319,20.834 -139.583,106.424 -139.583,106.424c0,0 6.945,-160.313 127.083,-219.878c120.313,-59.549 208.854,-16.233 208.854,-16.233c0,0 22.049,-78.455 63.542,-120.278c59.548,-60.225 144.965,-54.045 144.965,-54.045c0,0 -43.056,32.448 -48.611,71.077c-5.556,38.645 16.319,53.628 16.319,53.628c0,0 59.201,-74.792 143.576,-78.09c112.153,-4.41 183.333,79.184 183.333,79.184c0,0 -41.319,-14.393 -80.034,-14.393c-38.542,0 -62.327,22.674 -62.327,22.674c0,0 133.16,12.639 192.014,92.673c61.632,83.507 44.271,200.347 44.271,200.347c0,0 -29.34,-108.68 -86.111,-147.395c-56.945,-38.577 -139.062,-39.15 -139.062,-39.15c0,0 120.312,59.462 120.312,210.156c0,150.695 -81.771,252.778 -81.771,252.778c0,0 51.215,-207.465 -8.16,-284.375c-86.979,-112.847 -239.582,-90.104 -317.534,50.521c-89.062,160.59 -73.784,356.944 -65.451,455.034c8.333,98.264 44.271,215.798 44.271,215.798c0,0 40.451,-8.507 75,6.424c24.132,10.243 30.902,44.271 64.062,55.382c33.16,11.111 19.965,-8.16 96.007,-1.736c11.284,1.041 226.388,126.388 238.888,136.284c-177.951,118.576 -554.339,133.68 -757.811,119.444c-122.396,-8.507 -409.27,-61.805 -495.242,-119.444Z" style="fill:#fff;fill-rule:nonzero;"/></g><path d="M3348.11,2317.74l965.85,0c247.238,0 412.153,-47.139 541.879,-156.02c129.592,-109.011 212.049,-288.664 212.049,-462.343c0,-214.971 -111.933,-379.886 -356.383,-521.298c212.053,-135.435 294.51,-259.188 294.51,-441.762c0,-150.177 -73.562,-303.271 -194.394,-409.231c-126.54,-109.015 -276.713,-156.15 -506.426,-156.15l-957.085,0l0,2146.8Zm441.762,-1778.74l480.005,0c203.154,0 312.036,82.457 312.036,241.528c0,161.993 -105.96,244.451 -312.036,244.451l-480.005,0l0,-485.979Zm0,854.048l527.01,0c214.97,0 326.773,94.278 326.773,279.769c0,182.574 -111.803,276.851 -326.773,276.851l-527.01,0l0,-556.62Zm1875.8,-1222.11l-412.287,0l0,2146.8l412.287,0l0,-2146.8Zm827.491,-5.843l-323.986,0l0,359.305l323.986,0l0,-359.305Zm547.722,0l-323.986,0l0,359.305l323.986,0l0,-359.305Zm288.667,2102.59c-67.853,-67.72 -88.434,-111.933 -88.434,-194.39l0,-880.473c0,-323.986 -223.736,-491.822 -659.655,-491.822c-429.946,0 -653.681,182.573 -677.318,550.777l397.549,0c17.66,-164.915 85.375,-218.027 288.664,-218.027c161.993,0 238.477,53.112 238.477,161.993c0,85.379 -61.876,138.491 -197.315,161.994l-132.514,20.58l-161.993,29.48c-318.009,52.978 -471.108,214.971 -471.108,500.583c0,138.49 38.24,244.45 111.933,326.908c88.301,94.273 226.657,150.173 370.991,150.173c176.731,0 338.724,-76.481 482.928,-226.658c3.051,88.301 8.894,108.882 47.135,158.942l450.66,0l0,-50.06Zm-500.717,-585.962c0,235.551 -117.78,370.991 -326.907,370.991c-138.357,0 -223.736,-73.563 -223.736,-191.473c0,-58.821 23.502,-111.799 61.876,-147.121c41.162,-35.453 70.637,-50.057 173.676,-67.85l141.412,-29.345c108.881,-20.715 123.619,-26.554 173.679,-47.139l0,111.937Zm1393.01,-921.769l-229.713,0l0,-427.02l-412.286,0l0,427.02l-203.285,0l0,273.796l203.285,0l0,977.802c0,250.289 135.439,373.909 403.392,373.909c94.273,0 161.993,-8.761 238.607,-32.397l0,-285.613c-41.296,5.844 -61.876,8.895 -97.195,8.895c-106.094,0 -132.518,-32.397 -132.518,-173.809l0,-868.787l229.713,0l0,-273.796Zm921.63,0l-229.708,0l0,-427.02l-412.287,0l0,427.02l-203.155,0l0,273.796l203.155,0l0,977.802c0,250.289 135.569,373.909 403.522,373.909c94.144,0 161.993,-8.761 238.473,-32.397l0,-285.613c-41.161,5.844 -61.876,8.895 -97.195,8.895c-105.959,0 -132.513,-32.397 -132.513,-173.809l0,-868.787l229.708,0l0,-273.796Zm1578.5,892.289l2.921,-76.614c0,-153.094 -23.632,-303.271 -61.876,-412.282c-105.956,-288.534 -362.227,-462.347 -683.157,-462.347c-456.5,0 -736.273,329.829 -736.273,865.868c0,506.427 276.851,818.593 727.378,818.593c356.383,0 641.995,-200.234 733.347,-515.321l-406.443,0c-47.135,126.67 -161.993,200.233 -312.166,200.233c-117.776,0 -212.053,-50.06 -267.953,-138.357c-41.295,-61.876 -56.033,-132.517 -61.876,-279.773l1066.1,0l-0.002,0Zm-1060.26,-273.926c11.816,-111.932 29.475,-170.757 64.798,-229.712c56.033,-85.375 144.33,-132.514 247.368,-132.514c114.858,0 214.975,58.955 271.008,156.15c29.346,52.982 41.162,111.937 50.056,206.076l-633.23,0l0,0Zm1251.59,-650.76l0,1590.19l412.287,0l0,-845.154c0,-238.474 123.749,-362.226 359.305,-362.226c47.138,0 79.535,2.921 132.513,11.82l0,-418.264c-23.632,-2.921 -35.318,-2.921 -50.056,-2.921c-188.551,0 -350.41,123.752 -435.923,338.727l-5.839,0l0,-312.17l-412.287,0l0,-0.002Z" style="fill:#e71835;fill-rule:nonzero;"/></g></svg>