<?xml version="1.0" encoding="UTF-8" standalone="no"?><!DOCTYPE svg PUBLIC "-//W3C//DTD SVG 1.1//EN" "http://www.w3.org/Graphics/SVG/1.1/DTD/svg11.dtd"><svg width="100%" height="100%" viewBox="0 0 2230 2223" version="1.1" xmlns="http://www.w3.org/2000/svg" xmlns:xlink="http://www.w3.org/1999/xlink" xml:space="preserve" xmlns:serif="http://www.serif.com/" style="fill-rule:evenodd;clip-rule:evenodd;stroke-linejoin:round;stroke-miterlimit:1.41421;"><g><path d="M651.478,2191.67c552.256,114.41 1207.81,-276.388 1463.89,-872.915c256.076,-596.527 15.972,-1172.93 -536.458,-1287.32c-552.43,-114.41 -1207.85,276.44 -1463.96,872.915c-256.111,596.527 -15.937,1172.91 536.527,1287.32l0.001,0Z" style="fill:#e71835;fill-rule:nonzero;"/><path d="M651.478,2191.67l-4.687,10.764c279.687,57.986 585.415,-12.153 853.123,-171.701c267.535,-159.722 497.569,-408.853 626.735,-709.721c129.167,-300.868 133.333,-596.874 35.243,-832.186c-98.09,-235.364 -298.61,-410.329 -578.297,-468.246c-279.861,-57.934 -585.59,12.153 -853.124,171.788c-267.725,159.635 -497.655,408.836 -626.839,709.721c-129.167,300.868 -133.281,596.874 -35.191,832.117c98.038,235.416 298.593,410.416 578.35,468.228l4.687,-10.764l4.514,-10.764c-272.604,-56.597 -468.333,-226.909 -564.444,-457.464c-96.076,-230.555 -92.239,-521.006 34.705,-816.665c126.944,-295.677 352.777,-540.191 614.982,-696.51c262.152,-156.336 560.242,-224.461 832.985,-168.003c272.742,56.476 468.402,226.892 564.582,457.43c96.007,230.52 92.187,520.971 -34.722,816.63c-126.91,295.66 -352.777,540.277 -614.93,696.527c-262.326,156.25 -560.415,224.479 -833.158,168.055l-4.514,10.764Z" style="fill:#e71835;fill-rule:nonzero;"/><path d="M334.708,1710.42c143.177,-10.243 295.989,-116.666 350.624,-138.021c63.542,-24.826 79.514,-10.243 108.16,-20.833c32.986,-12.153 48.09,-43.055 84.027,-48.611c35.938,-5.555 77.257,8.333 77.257,8.333c0,0 -10.937,-266.666 8.334,-427.082c19.27,-160.59 136.805,-341.319 136.805,-341.319c0,0 -41.32,-23.785 -80.035,-5.729c-36.632,17.014 -70.659,63.541 -70.659,63.541c0,0 -3.299,-31.076 7.639,-71.701c7.291,-26.736 31.076,-51.389 31.076,-51.389c0,0 -67.882,-20.833 -134.028,0c-66.319,20.834 -139.583,106.424 -139.583,106.424c0,0 6.945,-160.313 127.083,-219.878c120.313,-59.549 208.854,-16.233 208.854,-16.233c0,0 22.049,-78.455 63.542,-120.278c59.548,-60.225 144.965,-54.045 144.965,-54.045c0,0 -43.056,32.448 -48.611,71.077c-5.556,38.645 16.319,53.628 16.319,53.628c0,0 59.201,-74.792 143.576,-78.09c112.153,-4.41 183.333,79.184 183.333,79.184c0,0 -41.319,-14.393 -80.034,-14.393c-38.542,0 -62.327,22.674 -62.327,22.674c0,0 133.16,12.639 192.014,92.673c61.632,83.507 44.271,200.347 44.271,200.347c0,0 -29.34,-108.68 -86.111,-147.395c-56.945,-38.577 -139.062,-39.15 -139.062,-39.15c0,0 120.312,59.462 120.312,210.156c0,150.695 -81.771,252.778 -81.771,252.778c0,0 51.215,-207.465 -8.16,-284.375c-86.979,-112.847 -239.582,-90.104 -317.534,50.521c-89.062,160.59 -73.784,356.944 -65.451,455.034c8.333,98.264 44.271,215.798 44.271,215.798c0,0 40.451,-8.507 75,6.424c24.132,10.243 30.902,44.271 64.062,55.382c33.16,11.111 19.965,-8.16 96.007,-1.736c11.284,1.041 226.388,126.388 238.888,136.284c-177.951,118.576 -554.339,133.68 -757.811,119.444c-122.396,-8.507 -409.27,-61.805 -495.242,-119.444Z" style="fill:#fff;fill-rule:nonzero;"/></g></svg>