<?xml version="1.0" encoding="UTF-8"?>
<!DOCTYPE svg PUBLIC "-//W3C//DTD SVG 1.1//EN" "http://www.w3.org/Graphics/SVG/1.1/DTD/svg11.dtd">
<svg version="1.1" xmlns="http://www.w3.org/2000/svg" xmlns:xlink="http://www.w3.org/1999/xlink" x="0" y="0" width="566.93" height="654.37" viewBox="0, 0, 566.93, 654.37">
  <g id="Ebene_1" transform="translate(-430.07, -186.63)">
    <path d="M997,677.18 L997,350.45 L713.53,186.63 L430.07,350.45 L430.07,677.18 L713.53,841 L996.99,677.18 L996.99,677.18 z M697.98,571.34 C698.71,599.63 705.31,651.6 705.31,651.6 C705.31,651.6 724.66,649.82 734.3,654.03 C741.04,656.92 765.58,662.25 774.9,665.35 C784.23,668.45 792.37,675.65 814.18,677.2 C817.42,677.46 864.69,696.74 868.12,699.13 L880.49,708.14 L714.47,803.19 L523.89,695.62 C534.58,691.28 542.1,688.24 542.1,688.24 C583.67,684.65 565.85,679.98 582.1,673.52 C601,666.01 593.53,663.87 602.03,660.66 C611.83,656.98 627.61,651.37 638.11,649.59 C648.61,647.82 666.58,651.7 666.58,651.7 C666.58,651.7 660.08,573.45 666.91,523.96 C675.32,448.69 705.23,392.55 705.23,392.55 C705.23,392.55 681.51,395.63 669.3,405.8 C657.98,414.43 643.77,435.79 643.77,435.79 C643.77,435.79 644.59,417.5 648.1,403.82 C650.44,394.81 658.18,385.96 658.18,385.96 C658.18,385.96 635.93,381.3 614.32,390.25 C592.65,399.21 568.83,429.65 568.83,429.65 C568.83,429.65 570.82,376.81 610.03,353.42 C630.27,341.36 647.78,338.55 660.02,338.65 C655.01,335.86 649.62,333.41 644.05,331.73 C619.61,324.44 583.76,340.2 583.76,340.2 C583.76,340.2 594.43,303.13 646.29,304.41 C660.39,303.75 675.25,309.26 688.16,316.24 C691.11,310.45 694.71,304.62 698.94,299.9 C718.32,278.23 746.28,277.52 746.28,277.52 C746.28,277.52 732.25,289.55 730.5,302.4 C728.75,315.26 731.96,323.74 731.96,323.74 C731.96,323.74 755.08,287.92 785.46,286.42 C821.57,284.64 842.91,309.37 842.91,309.37 C842.91,309.37 829.36,305.97 816.69,307.21 C804.08,308.44 793.82,316.3 793.82,316.3 C793.82,316.3 842.92,317.08 862.32,341.46 C892.55,373.92 874.18,405.24 874.18,405.24 C874.18,405.24 864.24,371.82 845.6,360.93 C826.9,350.09 800.17,351.23 800.17,351.23 C800.17,351.23 858.08,375.09 861.3,424.17 C865.16,482.96 852.19,493.15 852.19,493.15 C852.19,493.15 841.62,432.53 817.54,409.04 C807.88,399.93 794.34,395.18 781.05,392.82 C786.01,399.19 790,406.1 792.1,413.39 C809.77,461.04 777.15,482.67 777.15,482.67 C777.15,482.67 781.09,444.46 766.28,424.12 C757.08,411.57 742.74,401.99 733.11,396.49 C729.16,404.06 725.52,414.56 720.01,429.69 C699.6,486.99 697.05,534.8 697.99,571.34 L697.99,571.34 z" fill="#E51736"/>
    <path d="M697.98,571.34 C698.71,599.63 705.31,651.6 705.31,651.6 C705.31,651.6 724.66,649.82 734.3,654.03 C741.04,656.92 765.58,662.25 774.9,665.35 C784.23,668.45 792.37,675.65 814.18,677.2 C817.42,677.46 864.69,696.74 868.12,699.13 L880.49,708.14 L714.47,803.19 L523.89,695.62 C534.58,691.28 542.1,688.24 542.1,688.24 C583.67,684.65 565.85,679.98 582.1,673.52 C601,666.01 593.53,663.87 602.03,660.66 C611.83,656.98 627.61,651.37 638.11,649.59 C648.61,647.82 666.58,651.7 666.58,651.7 C666.58,651.7 660.08,573.45 666.91,523.96 C675.32,448.69 705.23,392.55 705.23,392.55 C705.23,392.55 681.51,395.63 669.3,405.8 C657.98,414.43 643.77,435.79 643.77,435.79 C643.77,435.79 644.59,417.5 648.1,403.82 C650.44,394.81 658.18,385.96 658.18,385.96 C658.18,385.96 635.93,381.3 614.32,390.25 C592.65,399.21 568.83,429.65 568.83,429.65 C568.83,429.65 570.82,376.81 610.03,353.42 C630.27,341.36 647.78,338.55 660.02,338.65 C655.01,335.86 649.62,333.41 644.05,331.73 C619.61,324.44 583.76,340.2 583.76,340.2 C583.76,340.2 594.43,303.13 646.29,304.41 C660.39,303.75 675.25,309.26 688.16,316.24 C691.11,310.45 694.71,304.62 698.94,299.9 C718.32,278.23 746.28,277.52 746.28,277.52 C746.28,277.52 732.25,289.55 730.5,302.4 C728.75,315.26 731.96,323.74 731.96,323.74 C731.96,323.74 755.08,287.92 785.46,286.42 C821.57,284.64 842.91,309.37 842.91,309.37 C842.91,309.37 829.36,305.97 816.69,307.21 C804.08,308.44 793.82,316.3 793.82,316.3 C793.82,316.3 842.92,317.08 862.32,341.46 C892.55,373.92 874.18,405.24 874.18,405.24 C874.18,405.24 864.24,371.82 845.6,360.93 C826.9,350.09 800.17,351.23 800.17,351.23 C800.17,351.23 858.08,375.09 861.3,424.17 C865.16,482.96 852.19,493.15 852.19,493.15 C852.19,493.15 841.62,432.53 817.54,409.04 C807.88,399.93 794.34,395.18 781.05,392.82 C786.01,399.19 790,406.1 792.1,413.39 C809.77,461.04 777.15,482.67 777.15,482.67 C777.15,482.67 781.09,444.46 766.28,424.12 C757.08,411.57 742.74,401.99 733.11,396.49 C729.16,404.06 725.52,414.56 720.01,429.69 C699.6,486.99 697.05,534.8 697.99,571.34 L697.99,571.34 z" fill="#FFFFFF"/>
  </g>
</svg>
