<?xml version="1.0" encoding="UTF-8" standalone="no"?>
<!DOCTYPE svg PUBLIC "-//W3C//DTD SVG 1.1//EN" "http://www.w3.org/Graphics/SVG/1.1/DTD/svg11.dtd">
<svg width="100%" height="100%" viewBox="0 0 11825 2388" version="1.1" xmlns="http://www.w3.org/2000/svg" xmlns:xlink="http://www.w3.org/1999/xlink" xml:space="preserve" xmlns:serif="http://www.serif.com/" style="fill-rule:evenodd;clip-rule:evenodd;stroke-linejoin:round;stroke-miterlimit:1.41421;">
    <g transform="matrix(1,0,0,1,-3347.71,0)">
        <g>
            <path d="M3348.11,2317.74L4313.96,2317.74C4561.2,2317.74 4726.11,2270.6 4855.84,2161.72C4985.43,2052.71 5067.89,1873.06 5067.89,1699.38C5067.89,1484.41 4955.95,1319.49 4711.51,1178.08C4923.56,1042.64 5006.02,918.891 5006.02,736.317C5006.02,586.14 4932.45,433.046 4811.62,327.086C4685.08,218.071 4534.91,170.936 4305.19,170.936L3348.11,170.936L3348.11,2317.74ZM3789.87,539L4269.88,539C4473.03,539 4581.91,621.457 4581.91,780.528C4581.91,942.521 4475.95,1024.98 4269.88,1024.98L3789.87,1024.98L3789.87,539ZM3789.87,1393.05L4316.88,1393.05C4531.85,1393.05 4643.65,1487.33 4643.65,1672.82C4643.65,1855.39 4531.85,1949.67 4316.88,1949.67L3789.87,1949.67L3789.87,1393.05ZM5665.67,170.938L5253.39,170.938L5253.39,2317.74L5665.67,2317.74L5665.67,170.938ZM6493.16,165.095L6169.18,165.095L6169.18,524.4L6493.16,524.4L6493.16,165.095ZM7040.89,165.095L6716.9,165.095L6716.9,524.4L7040.89,524.4L7040.89,165.095ZM7329.55,2267.68C7261.7,2199.97 7241.12,2155.75 7241.12,2073.3L7241.12,1192.82C7241.12,868.836 7017.38,701 6581.46,701C6151.52,701 5927.78,883.573 5904.15,1251.78L6301.69,1251.78C6319.35,1086.86 6387.07,1033.75 6590.36,1033.75C6752.35,1033.75 6828.84,1086.86 6828.84,1195.74C6828.84,1281.12 6766.96,1334.23 6631.52,1357.74L6499.01,1378.32L6337.01,1407.8C6019,1460.78 5865.9,1622.77 5865.9,1908.38C5865.9,2046.87 5904.15,2152.83 5977.84,2235.29C6066.14,2329.56 6204.49,2385.46 6348.83,2385.46C6525.56,2385.46 6687.55,2308.98 6831.76,2158.8C6834.81,2247.1 6840.65,2267.68 6878.89,2317.74L7329.55,2317.74L7329.55,2267.68ZM6828.84,1681.72C6828.84,1917.27 6711.06,2052.71 6501.93,2052.71C6363.57,2052.71 6278.19,1979.15 6278.19,1861.24C6278.19,1802.42 6301.69,1749.44 6340.07,1714.12C6381.23,1678.67 6410.7,1664.06 6513.74,1646.27L6655.16,1616.92C6764.04,1596.21 6778.78,1590.37 6828.84,1569.79L6828.84,1681.72ZM8221.84,759.954L7992.13,759.954L7992.13,332.934L7579.85,332.934L7579.85,759.954L7376.56,759.954L7376.56,1033.75L7579.85,1033.75L7579.85,2011.55C7579.85,2261.84 7715.28,2385.46 7983.24,2385.46C8077.51,2385.46 8145.23,2376.7 8221.84,2353.06L8221.84,2067.45C8180.55,2073.3 8159.97,2076.35 8124.65,2076.35C8018.56,2076.35 7992.13,2043.95 7992.13,1902.54L7992.13,1033.75L8221.84,1033.75L8221.84,759.954ZM9143.48,759.954L8913.77,759.954L8913.77,332.934L8501.48,332.934L8501.48,759.954L8298.33,759.954L8298.33,1033.75L8501.48,1033.75L8501.48,2011.55C8501.48,2261.84 8637.05,2385.46 8905,2385.46C8999.15,2385.46 9067,2376.7 9143.48,2353.06L9143.48,2067.45C9102.31,2073.3 9081.6,2076.35 9046.28,2076.35C8940.32,2076.35 8913.77,2043.95 8913.77,1902.54L8913.77,1033.75L9143.48,1033.75L9143.48,759.954ZM10722,1652.24L10724.9,1575.63C10724.9,1422.54 10701.3,1272.36 10663,1163.35C10557.1,874.813 10300.8,701 9979.86,701C9523.36,701 9243.59,1030.83 9243.59,1566.87C9243.59,2073.3 9520.44,2385.46 9970.97,2385.46C10327.4,2385.46 10613,2185.23 10704.3,1870.14L10297.9,1870.14C10250.7,1996.81 10135.9,2070.37 9985.71,2070.37C9867.93,2070.37 9773.65,2020.31 9717.75,1932.02C9676.46,1870.14 9661.72,1799.5 9655.88,1652.24L10722,1652.24L10722,1652.24L10722,1652.24ZM9661.72,1378.32C9673.53,1266.38 9691.19,1207.56 9726.51,1148.61C9782.55,1063.23 9870.84,1016.09 9973.88,1016.09C10088.7,1016.09 10188.9,1075.05 10244.9,1172.24C10274.2,1225.22 10286.1,1284.18 10294.9,1378.32L9661.72,1378.32L9661.72,1378.32ZM10913.3,727.557L10913.3,2317.75L11325.6,2317.75L11325.6,1472.59C11325.6,1234.12 11449.3,1110.37 11684.9,1110.37C11732,1110.37 11764.4,1113.29 11817.4,1122.19L11817.4,703.923C11793.8,701.002 11782.1,701.002 11767.4,701.002C11578.8,701.002 11416.9,824.754 11331.4,1039.73L11325.6,1039.73L11325.6,727.559L10913.3,727.559L10913.3,727.557Z" style="fill:rgb(231,24,53);fill-rule:nonzero;"/>
        </g>
    </g>
</svg>
