<?xml version="1.0" encoding="UTF-8"?>
<!DOCTYPE svg PUBLIC "-//W3C//DTD SVG 1.1//EN" "http://www.w3.org/Graphics/SVG/1.1/DTD/svg11.dtd">
<svg version="1.1" xmlns="http://www.w3.org/2000/svg" xmlns:xlink="http://www.w3.org/1999/xlink" x="0" y="0" width="1022" height="382" viewBox="0, 0, 1022, 382">
  <g id="Background">
    <rect x="0" y="0" width="1022" height="382" fill="#FFFFFF"/>
  </g>
  <g id="Ebene_1">
    <path d="M326.23,275.18 L326.23,103.89 L177.61,18 L29,103.89 L29,275.19 L177.61,361.07 L326.22,275.19 L326.22,275.19 z M169.46,219.7 C169.84,234.53 173.3,261.78 173.3,261.78 C173.3,261.78 183.45,260.85 188.5,263.05 C192.03,264.56 204.9,267.36 209.79,268.99 C214.68,270.62 218.95,274.39 230.38,275.2 C232.08,275.34 256.86,285.44 258.66,286.7 L265.15,291.43 L178.11,341.26 L78.19,284.86 C83.79,282.58 87.73,280.99 87.73,280.99 C109.52,279.11 100.18,276.66 108.7,273.27 C118.61,269.33 114.69,268.21 119.15,266.53 C124.29,264.6 132.56,261.66 138.07,260.73 C143.58,259.8 153,261.83 153,261.83 C153,261.83 149.59,220.8 153.17,194.86 C157.58,155.4 173.26,125.97 173.26,125.97 C173.26,125.97 160.82,127.58 154.42,132.92 C148.48,137.44 141.04,148.64 141.04,148.64 C141.04,148.64 141.47,139.05 143.31,131.88 C144.54,127.16 148.59,122.52 148.59,122.52 C148.59,122.52 136.92,120.08 125.59,124.77 C114.23,129.47 101.74,145.42 101.74,145.42 C101.74,145.42 102.78,117.72 123.34,105.45 C133.95,99.13 143.13,97.65 149.55,97.71 C146.92,96.25 144.09,94.96 141.18,94.08 C128.37,90.26 109.57,98.52 109.57,98.52 C109.57,98.52 115.16,79.09 142.35,79.75 C149.74,79.4 157.53,82.3 164.3,85.95 C165.85,82.91 167.73,79.86 169.95,77.38 C180.11,66.02 194.77,65.65 194.77,65.65 C194.77,65.65 187.41,71.96 186.5,78.7 C185.58,85.44 187.27,89.89 187.27,89.89 C187.27,89.89 199.39,71.11 215.32,70.33 C234.25,69.4 245.44,82.36 245.44,82.36 C245.44,82.36 238.34,80.58 231.7,81.23 C225.09,81.88 219.71,86 219.71,86 C219.71,86 245.45,86.41 255.62,99.19 C271.47,116.21 261.84,132.63 261.84,132.63 C261.84,132.63 256.63,115.11 246.86,109.4 C237.05,103.72 223.04,104.31 223.04,104.31 C223.04,104.31 253.4,116.82 255.09,142.55 C257.11,173.37 250.31,178.71 250.31,178.71 C250.31,178.71 244.77,146.93 232.14,134.61 C227.08,129.83 219.98,127.35 213.01,126.1 C215.61,129.44 217.7,133.06 218.8,136.89 C228.06,161.87 210.96,173.21 210.96,173.21 C210.96,173.21 213.03,153.18 205.26,142.51 C200.44,135.93 192.92,130.91 187.87,128.02 C185.8,131.99 183.89,137.5 181.01,145.43 C170.31,175.47 168.97,200.54 169.47,219.69 L169.47,219.69 z" fill="#E51736"/>
    <path d="M169.46,219.7 C169.84,234.53 173.3,261.78 173.3,261.78 C173.3,261.78 183.45,260.85 188.5,263.05 C192.03,264.56 204.9,267.36 209.79,268.99 C214.68,270.62 218.95,274.39 230.38,275.2 C232.08,275.34 256.86,285.44 258.66,286.7 L265.15,291.43 L178.11,341.26 L78.19,284.86 C83.79,282.58 87.73,280.99 87.73,280.99 C109.52,279.11 100.18,276.66 108.7,273.27 C118.61,269.33 114.69,268.21 119.15,266.53 C124.29,264.6 132.56,261.66 138.07,260.73 C143.58,259.8 153,261.83 153,261.83 C153,261.83 149.59,220.8 153.17,194.86 C157.58,155.4 173.26,125.97 173.26,125.97 C173.26,125.97 160.82,127.58 154.42,132.92 C148.48,137.44 141.04,148.64 141.04,148.64 C141.04,148.64 141.47,139.05 143.31,131.88 C144.54,127.16 148.59,122.52 148.59,122.52 C148.59,122.52 136.92,120.08 125.59,124.77 C114.23,129.47 101.74,145.42 101.74,145.42 C101.74,145.42 102.78,117.72 123.34,105.45 C133.95,99.13 143.13,97.65 149.55,97.71 C146.92,96.25 144.09,94.96 141.18,94.08 C128.37,90.26 109.57,98.52 109.57,98.52 C109.57,98.52 115.16,79.09 142.35,79.75 C149.74,79.4 157.53,82.3 164.3,85.95 C165.85,82.91 167.73,79.86 169.95,77.38 C180.11,66.02 194.77,65.65 194.77,65.65 C194.77,65.65 187.41,71.96 186.5,78.7 C185.58,85.44 187.27,89.89 187.27,89.89 C187.27,89.89 199.39,71.11 215.32,70.33 C234.25,69.4 245.44,82.36 245.44,82.36 C245.44,82.36 238.34,80.58 231.7,81.23 C225.09,81.88 219.71,86 219.71,86 C219.71,86 245.45,86.41 255.62,99.19 C271.47,116.21 261.84,132.63 261.84,132.63 C261.84,132.63 256.63,115.11 246.86,109.4 C237.05,103.72 223.04,104.31 223.04,104.31 C223.04,104.31 253.4,116.82 255.09,142.55 C257.11,173.37 250.31,178.71 250.31,178.71 C250.31,178.71 244.77,146.93 232.14,134.61 C227.08,129.83 219.98,127.35 213.01,126.1 C215.61,129.44 217.7,133.06 218.8,136.89 C228.06,161.87 210.96,173.21 210.96,173.21 C210.96,173.21 213.03,153.18 205.26,142.51 C200.44,135.93 192.92,130.91 187.87,128.02 C185.8,131.99 183.89,137.5 181.01,145.43 C170.31,175.47 168.97,200.54 169.47,219.69 L169.47,219.69 z" fill="#FFFFFF"/>
    <path d="M980.06,274.39 L992.52,265.11 L986.16,265.11 L967.77,278.63 L967.77,254.51 L963.74,254.51 L963.74,294.26 L967.77,294.26 L967.77,283.66 L976.83,276.82 L987.69,294.26 L992.78,294.26 L980.06,274.38 L980.06,274.38 z M986.88,136.18 C988.61,136.42 990.3,136.78 991.93,137.23 L991.93,110 C989.45,109.66 986.86,109.51 984.72,109.69 C973.29,110.66 967.31,114.48 960.2,122.17 L960.2,111.87 L933.36,111.87 L933.36,191.67 L960.2,191.67 L960.2,142.29 C967.1,137.24 976.71,134.75 986.88,136.18 L986.88,136.18 z M931.88,254.47 L931.88,265.12 L924.62,265.12 L924.62,268.83 L931.88,268.83 L931.88,287.86 C931.88,293.69 936.39,295.07 940.47,295.07 C942.7,295.07 944.07,294.86 945.72,294.28 L945.72,290.41 C944.77,290.99 943.28,291.37 941.16,291.37 C938.3,291.37 935.96,290.63 935.96,286.76 L935.96,268.84 L945.71,268.84 L945.71,265.13 L935.96,265.13 L935.96,254.48 L931.88,254.48 z M923.2,159.27 C923.35,157.82 923.63,152.46 923.63,149.85 C923.63,128.39 904.04,109.55 875.75,109.55 C847.46,109.55 827.9,127.37 827.08,150.17 C827.05,150.35 827.03,151.8 827.04,151.91 C827.26,174.34 847.13,193.64 875.75,193.64 C897.04,193.64 913.39,182.47 920.18,167.8 L892.69,164.99 C889.27,170.25 883.54,173.92 875.6,173.92 C865.59,173.92 859.07,167.39 856.45,159.28 L923.19,159.28 z M895.34,143.03 L856.45,143.03 C859.06,134.91 865.59,129.26 875.6,129.26 C886.19,129.26 892.87,134.91 895.33,143.03 L895.33,143.03 z M824.04,217.16 L824.04,238.31 C820.81,241.6 817.31,243.24 813.49,243.24 C808.83,243.24 805.28,240.96 805.28,235.87 L805.28,217.16 L801.2,217.16 L801.2,237.41 C801.2,244.3 806.98,247.11 812.54,247.11 C817.2,247.11 820.97,244.94 824.04,241.92 L824.04,246.32 L828.12,246.32 L828.12,217.17 L824.04,217.17 z M802.72,193.63 C809.1,193.63 818.22,192.46 821.98,191.1 L821.98,169.94 C819.75,171.01 812.41,172.01 808.67,172.01 C802.43,172.01 796.19,170.31 796.19,160.88 L796.19,132.3 L821.98,132.3 L821.98,111.84 L796.19,111.84 L796.19,84 L769.35,84 L769.35,111.84 L752.25,111.84 L752.25,132.3 L769.35,132.3 L769.35,167.99 C769.35,189.03 784.73,193.63 802.72,193.63 L802.72,193.63 z M761.6,216.37 C752.48,216.37 745.43,223.37 745.43,231.74 C745.43,240.11 752.48,247.11 762.18,247.11 C770.13,247.11 774.85,243.08 777.13,238.37 L773.15,236.67 C771.51,240.49 768.43,243.56 762.18,243.56 C755.45,243.56 750.41,239.48 749.78,233.06 L777.5,233.06 C777.55,232.58 777.61,231.52 777.61,230.68 C777.61,223.42 770.83,216.37 761.6,216.37 L761.6,216.37 z M761.6,219.92 C767.85,219.92 772.41,224.16 773.15,229.51 L749.93,229.51 C750.88,223.89 755.55,219.92 761.59,219.92 L761.59,219.92 z M727.37,193.63 C733.75,193.63 742.87,192.46 746.63,191.1 L746.63,169.94 C744.4,171.01 737.06,172.01 733.32,172.01 C727.08,172.01 720.84,170.31 720.84,160.88 L720.84,132.3 L746.63,132.3 L746.63,111.84 L720.84,111.84 L720.84,84 L694,84 L694,111.84 L676.9,111.84 L676.9,132.3 L694,132.3 L694,167.99 C694,189.03 709.38,193.63 727.37,193.63 L727.37,193.63 z M677.98,172.9 C676.25,174 674.28,174.19 671.77,174.19 C671.74,174.19 671.71,174.19 671.68,174.19 C671.68,174.19 671.67,174.19 671.66,174.19 C666.88,174.19 665.22,170.68 665.22,165.17 L665.22,133.32 C665.22,117.81 647.24,109.54 622.45,109.54 C606.6,109.54 596.74,110.57 583.44,114.98 L588.37,132.49 C599.4,129.46 607.33,128.06 619.65,128.06 C633.2,128.06 638.66,129.73 638.66,135.18 L638.66,140.28 L626.71,140.28 C622.9,140.41 618.04,140.51 611.86,140.86 C590.84,142.17 577.28,149.27 577.28,165.65 C577.28,184.21 592.72,193.63 607.51,193.63 C622.3,193.63 632.3,188.27 639.69,181.31 C642.2,188.28 648.1,193.19 657.83,193.56 C659.09,193.73 660.53,193.82 662.29,193.82 C666.94,193.82 674.77,192.35 677.96,190.52 L677.96,172.91 L677.96,172.91 z M638.4,165.79 C631.44,173.18 623.03,175.36 615.78,175.36 C608.53,175.36 604.33,170.5 604.33,165.29 C604.33,160.08 607.95,156.23 619.41,155.07 C622.95,154.71 625.66,154.76 629.33,154.71 L638.4,154.71 L638.4,165.79 L638.4,165.79 z M648.87,94.06 C648.87,88.59 644.43,84.15 638.96,84.15 L636.17,84.15 C630.7,84.15 626.26,88.59 626.26,94.06 C626.26,99.53 630.69,103.97 636.17,103.97 L638.96,103.97 C644.43,103.97 648.87,99.53 648.87,94.06 L648.87,94.06 z M620.84,94.06 C620.84,88.59 616.41,84.15 610.93,84.15 L608.14,84.15 C602.67,84.15 598.23,88.59 598.23,94.06 C598.23,99.53 602.66,103.97 608.14,103.97 L610.93,103.97 C616.4,103.97 620.84,99.53 620.84,94.06 L620.84,94.06 z M577.07,233.06 C577.12,232.58 577.18,231.52 577.18,230.68 C577.18,223.42 570.39,216.37 561.17,216.37 C551.95,216.37 545,223.37 545,231.74 C545,240.11 552.05,247.11 561.75,247.11 C569.7,247.11 574.42,243.08 576.7,238.37 L572.72,236.67 C571.08,240.49 568,243.56 561.75,243.56 C555.02,243.56 549.98,239.48 549.35,233.06 L577.07,233.06 z M572.72,229.51 L549.5,229.51 C550.45,223.89 555.12,219.92 561.16,219.92 C567.2,219.92 571.97,224.16 572.71,229.51 L572.71,229.51 z M538.3,191.67 L564.82,191.67 L564.82,84.15 L538.3,84.15 L538.3,191.67 L538.3,191.67 z M534.18,246.32 L538.26,246.32 L538.26,206.57 L534.18,206.57 L534.18,223 C531.74,219.24 527.45,216.37 521.72,216.37 C513.45,216.37 506.24,222.89 506.24,231.74 C506.24,240.59 513.45,247.11 521.72,247.11 C527.45,247.11 531.74,244.3 534.18,240.49 L534.18,246.32 L534.18,246.32 z M534.18,231.74 C534.18,238.26 529.3,243.56 522.47,243.56 C515.64,243.56 510.49,238.58 510.49,231.74 C510.49,224.9 515.79,219.92 522.47,219.92 C529.15,219.92 534.18,225.27 534.18,231.74 L534.18,231.74 z M508.4,135.37 C515.8,131.31 520.73,124.05 520.73,114.62 C520.73,97.21 507.53,84.07 482.13,84.07 L412.34,84.07 L412.34,191.66 L479.81,191.66 C509.85,191.66 527.4,182.67 527.4,159.74 C527.4,146.39 518.84,138.56 508.39,135.36 L508.39,135.36 z M490.39,115.34 C490.39,123.61 484.59,126.22 472.69,126.22 L441.66,126.22 L441.66,104.6 L472.55,104.6 C484.74,104.6 490.4,107.21 490.4,115.34 L490.4,115.34 z M496.07,158.88 C496.07,167.15 490.27,169.76 478.37,169.76 L441.66,169.76 L441.66,148.14 L478.23,148.14 C490.42,148.14 496.08,150.75 496.08,158.88 L496.08,158.88 z M412.28,212.82 L412.28,217.17 L405.66,217.17 L405.66,220.88 L412.28,220.88 L412.28,246.32 L416.36,246.32 L416.36,220.88 L426.54,220.88 L426.54,217.17 L416.36,217.17 L416.36,213.62 C416.36,210.44 418.8,209.49 421.55,209.49 C423.88,209.49 425.53,210.23 426.48,211.13 L427.96,207.53 C426.48,206.63 424.46,205.78 421.28,205.78 C416.99,205.78 412.27,207.64 412.27,212.83 L412.27,212.83 z M368.13,305.24 L370.44,305.24 L370.44,73.83 L368.13,73.83 L368.13,305.24 L368.13,305.24 z M411.7,257.2 L411.7,258.2 C411.7,259.59 412.83,260.72 414.22,260.72 C415.61,260.72 416.74,259.59 416.74,258.2 L416.74,257.2 C416.74,255.81 415.61,254.68 414.22,254.68 C412.83,254.68 411.7,255.81 411.7,257.2 L411.7,257.2 z M416.26,265.12 L412.23,265.12 L412.23,294.27 L416.26,294.27 L416.26,265.12 L416.26,265.12 z M428.69,265.12 L424.66,265.12 L424.66,294.27 L428.69,294.27 L428.69,273.17 C431.87,269.94 435.47,268.19 439.24,268.19 C443.85,268.19 447.46,270.63 447.46,275.56 L447.46,294.27 L451.54,294.27 L451.54,273.97 C451.54,267.24 445.71,264.32 440.2,264.32 C435.69,264.32 431.93,266.44 428.7,269.62 L428.7,265.11 L428.7,265.11 z M440.16,213.16 C441.55,213.16 442.68,212.03 442.68,210.64 L442.68,209.64 C442.68,208.25 441.55,207.12 440.16,207.12 C438.77,207.12 437.64,208.25 437.64,209.64 L437.64,210.64 C437.64,212.03 438.77,213.16 440.16,213.16 L440.16,213.16 z M450.02,213.16 C451.41,213.16 452.54,212.03 452.54,210.64 L452.54,209.64 C452.54,208.25 451.41,207.12 450.02,207.12 C448.63,207.12 447.5,208.25 447.5,209.64 L447.5,210.64 C447.5,212.03 448.63,213.16 450.02,213.16 L450.02,213.16 z M442.97,247.11 C447.64,247.11 451.4,244.94 454.47,241.92 L454.47,246.32 L458.55,246.32 L458.55,217.17 L454.47,217.17 L454.47,238.32 C451.24,241.61 447.74,243.25 443.92,243.25 C439.26,243.25 435.71,240.97 435.71,235.88 L435.71,217.17 L431.63,217.17 L431.63,237.42 C431.63,244.31 437.41,247.12 442.97,247.12 L442.97,247.12 z M463.27,265.12 L456.01,265.12 L456.01,268.83 L463.27,268.83 L463.27,287.86 C463.27,293.69 467.78,295.07 471.86,295.07 C474.09,295.07 475.46,294.86 477.11,294.28 L477.11,290.41 C476.16,290.99 474.67,291.37 472.55,291.37 C469.69,291.37 467.36,290.63 467.36,286.76 L467.36,268.84 L477.11,268.84 L477.11,265.13 L467.36,265.13 L467.36,254.48 L463.28,254.48 L463.28,265.13 L463.28,265.13 z M470.95,246.32 L470.95,225.6 C474.18,221.94 477.47,220.25 480.65,220.25 C482.77,220.25 484.68,220.89 486.16,222.16 L486.16,217.44 C484.99,216.75 483.3,216.38 481.55,216.38 C477.2,216.38 473.97,218.45 470.95,221.84 L470.95,217.18 L466.92,217.18 L466.92,246.33 L470.95,246.33 z M479.93,279.69 C479.93,288.22 486.98,295.06 496.68,295.06 C504.63,295.06 509.35,291.03 511.63,286.32 L507.65,284.62 C506.01,288.44 502.93,291.51 496.68,291.51 C489.95,291.51 484.91,287.43 484.28,281.02 L512,281.02 C512.05,280.54 512.11,279.48 512.11,278.64 C512.11,271.38 505.33,264.33 496.1,264.33 C486.87,264.33 479.93,271.33 479.93,279.7 L479.93,279.7 z M484.43,277.47 C485.38,271.85 490.05,267.88 496.09,267.88 C502.13,267.88 506.9,272.12 507.64,277.47 L484.43,277.47 z M522.84,265.12 L518.81,265.12 L518.81,294.27 L522.84,294.27 L522.84,273.55 C526.07,269.89 529.36,268.2 532.54,268.2 C534.66,268.2 536.57,268.84 538.05,270.11 L538.05,265.39 C536.88,264.7 535.19,264.33 533.44,264.33 C529.09,264.33 525.86,266.4 522.84,269.79 L522.84,265.13 L522.84,265.13 z M547.41,265.12 L543.38,265.12 L543.38,294.27 L547.41,294.27 L547.41,273.17 C550.59,269.94 554.19,268.19 557.96,268.19 C562.57,268.19 566.17,270.63 566.17,275.56 L566.17,294.27 L570.25,294.27 L570.25,273.97 C570.25,267.24 564.42,264.32 558.91,264.32 C554.4,264.32 550.64,266.44 547.41,269.62 L547.41,265.11 L547.41,265.11 z M606.5,217.16 L606.5,238.31 C603.27,241.6 599.77,243.24 595.95,243.24 C591.29,243.24 587.73,240.96 587.73,235.87 L587.73,217.16 L583.65,217.16 L583.65,237.41 C583.65,244.3 589.43,247.11 594.99,247.11 C599.65,247.11 603.42,244.94 606.49,241.92 L606.49,246.32 L610.57,246.32 L610.57,217.17 L606.49,217.17 z M576.68,285.95 C576.68,292.57 582.88,295.07 588.08,295.07 C593.65,295.07 598.15,293.11 601.44,289.45 C601.86,292.58 603.3,295.07 606.58,295.07 C608.28,295.07 609.71,294.49 610.66,293.59 L610.66,290.41 C610.08,291.05 609.23,291.31 608.28,291.31 C606.27,291.31 605.42,290.04 605.42,287.28 L605.42,272.12 C605.42,267.67 600.44,264.33 592.22,264.33 C585.28,264.33 580.67,267.25 577.75,270.43 L580.08,273.4 C583.26,269.69 587.34,267.89 592.43,267.89 C597.84,267.89 601.34,269.8 601.34,272.5 C601.34,275.57 598.11,276.21 589.57,277.06 C582.41,277.75 576.69,279.87 576.69,285.96 L576.69,285.96 z M581.08,285.95 C581.08,282.61 583.84,281.07 590.3,280.44 C594.43,279.96 599.1,279.22 601.33,277.63 L601.33,285.95 C597.94,289.87 593.96,291.62 589.03,291.62 C584.1,291.62 581.08,289.39 581.08,285.95 L581.08,285.95 z M618.1,265.12 L610.84,265.12 L610.84,268.83 L618.1,268.83 L618.1,287.86 C618.1,293.69 622.61,295.07 626.69,295.07 C628.92,295.07 630.3,294.86 631.94,294.28 L631.94,290.41 C630.99,290.99 629.5,291.37 627.38,291.37 C624.52,291.37 622.18,290.63 622.18,286.76 L622.18,268.84 L631.93,268.84 L631.93,265.13 L622.18,265.13 L622.18,254.48 L618.1,254.48 L618.1,265.13 L618.1,265.13 z M627.05,238.79 L627.05,220.87 L636.8,220.87 L636.8,217.16 L627.05,217.16 L627.05,206.51 L622.97,206.51 L622.97,217.16 L615.71,217.16 L615.71,220.87 L622.97,220.87 L622.97,239.9 C622.97,245.73 627.48,247.11 631.56,247.11 C633.79,247.11 635.16,246.9 636.81,246.32 L636.81,242.45 C635.86,243.03 634.37,243.4 632.25,243.4 C629.39,243.4 627.06,242.66 627.06,238.79 L627.06,238.79 z M636.99,257.2 L636.99,258.2 C636.99,259.59 638.12,260.72 639.51,260.72 C640.9,260.72 642.03,259.59 642.03,258.2 L642.03,257.2 C642.03,255.81 640.9,254.68 639.51,254.68 C638.12,254.68 636.99,255.81 636.99,257.2 L636.99,257.2 z M641.54,265.12 L637.51,265.12 L637.51,294.27 L641.54,294.27 L641.54,265.12 L641.54,265.12 z M646.03,224.53 C646.03,221.35 650.01,219.81 654.83,219.81 C659.65,219.81 664.16,221.61 666.23,225.43 L669.62,222.78 C667.18,219.18 661.88,216.37 655.15,216.37 C647.46,216.37 641.74,219.66 641.74,225.12 C641.74,229.78 645.66,231.85 652.66,232.54 L658.44,233.12 C663.16,233.65 665.86,234.71 665.86,238 C665.86,240.97 662.89,243.57 656.59,243.57 C650.76,243.57 646.04,241.18 643.97,236.84 L640.26,239.49 C643.28,244.21 649.53,247.12 656.59,247.12 C664.91,247.12 670.37,243.3 670.37,237.69 C670.37,232.08 665.81,230.06 659.66,229.42 L653.94,228.78 C649.28,228.25 646.04,227.45 646.04,224.54 L646.04,224.54 z M648.36,279.69 C648.36,288.54 655.36,295.06 664.58,295.06 C673.8,295.06 680.75,288.54 680.75,279.69 C680.75,270.84 673.7,264.32 664.58,264.32 C655.46,264.32 648.36,270.84 648.36,279.69 L648.36,279.69 z M652.6,279.69 C652.6,272.75 657.8,267.92 664.58,267.92 C671.36,267.92 676.51,272.74 676.51,279.69 C676.51,286.64 671.21,291.46 664.58,291.46 C657.95,291.46 652.6,286.64 652.6,279.69 L652.6,279.69 z M679.37,231.74 C679.37,224.85 684.19,219.92 691.19,219.92 C696.81,219.92 700.73,222.99 702.32,227.34 L705.66,224.9 C703.27,220.13 698.19,216.37 691.19,216.37 C682.02,216.37 675.13,223 675.13,231.74 C675.13,240.48 682.02,247.11 691.19,247.11 C698.5,247.11 703.75,243.03 706.03,237.83 L702.43,235.98 C700.89,240.43 696.81,243.56 691.19,243.56 C684.14,243.56 679.37,238.68 679.37,231.74 L679.37,231.74 z M691.52,265.12 L687.49,265.12 L687.49,294.27 L691.52,294.27 L691.52,273.17 C694.7,269.94 698.3,268.19 702.07,268.19 C706.68,268.19 710.28,270.63 710.28,275.56 L710.28,294.27 L714.36,294.27 L714.36,273.97 C714.36,267.24 708.53,264.32 703.02,264.32 C698.52,264.32 694.75,266.44 691.52,269.62 L691.52,265.11 L691.52,265.11 z M716.08,246.32 L716.08,225.22 C719.26,221.99 722.86,220.24 726.63,220.24 C731.24,220.24 734.85,222.68 734.85,227.61 L734.85,246.32 L738.93,246.32 L738.93,226.02 C738.93,219.29 733.1,216.37 727.59,216.37 C723.08,216.37 719.32,218.49 716.09,221.67 L716.09,206.57 L712.06,206.57 L712.06,246.32 L716.09,246.32 z M720.79,285.95 C720.79,292.57 726.99,295.07 732.19,295.07 C737.76,295.07 742.26,293.11 745.55,289.45 C745.97,292.58 747.4,295.07 750.69,295.07 C752.39,295.07 753.82,294.49 754.77,293.59 L754.77,290.41 C754.19,291.05 753.34,291.31 752.38,291.31 C750.37,291.31 749.52,290.04 749.52,287.28 L749.52,272.12 C749.52,267.67 744.54,264.33 736.32,264.33 C729.38,264.33 724.77,267.25 721.85,270.43 L724.18,273.4 C727.36,269.69 731.44,267.89 736.53,267.89 C741.94,267.89 745.43,269.8 745.43,272.5 C745.43,275.57 742.2,276.21 733.66,277.06 C726.5,277.75 720.78,279.87 720.78,285.96 L720.78,285.96 z M725.19,285.95 C725.19,282.61 727.95,281.07 734.41,280.44 C738.54,279.96 743.21,279.22 745.43,277.63 L745.43,285.95 C742.04,289.87 738.06,291.62 733.13,291.62 C728.2,291.62 725.18,289.39 725.18,285.95 L725.18,285.95 z M763.52,254.52 L759.49,254.52 L759.49,294.27 L763.52,294.27 L763.52,254.52 L763.52,254.52 z M770.15,279.69 C770.15,288.22 777.2,295.06 786.9,295.06 C794.85,295.06 799.57,291.03 801.85,286.32 L797.87,284.62 C796.23,288.44 793.15,291.51 786.9,291.51 C780.17,291.51 775.13,287.43 774.5,281.02 L802.22,281.02 C802.27,280.54 802.33,279.48 802.33,278.64 C802.33,271.38 795.55,264.33 786.32,264.33 C777.09,264.33 770.15,271.33 770.15,279.7 L770.15,279.7 z M774.66,277.47 C775.61,271.85 780.28,267.88 786.32,267.88 C792.36,267.88 797.13,272.12 797.87,277.47 L774.65,277.47 z M847.38,257.17 L825.7,257.17 L825.7,294.27 L830.1,294.27 L830.1,276.99 L847.43,276.99 C856.02,276.99 860.26,273.39 860.26,267.19 C860.26,260.46 855.97,257.17 847.38,257.17 L847.38,257.17 z M830.1,261.2 L848.49,261.2 C853.1,261.2 855.86,263.43 855.86,267.14 C855.86,270.85 853.16,272.97 848.49,272.97 L830.1,272.97 L830.1,261.2 L830.1,261.2 z M840.52,246.32 L840.52,225.22 C843.7,221.99 847.3,220.24 851.07,220.24 C855.68,220.24 859.29,222.68 859.29,227.61 L859.29,246.32 L863.37,246.32 L863.37,226.02 C863.37,219.29 857.54,216.37 852.03,216.37 C847.52,216.37 843.76,218.49 840.53,221.67 L840.53,217.17 L836.5,217.17 L836.5,246.32 L840.53,246.32 z M863.81,279.69 C863.81,288.54 870.81,295.06 880.03,295.06 C889.25,295.06 896.2,288.54 896.2,279.69 C896.2,270.84 889.15,264.32 880.03,264.32 C870.91,264.32 863.81,270.84 863.81,279.69 L863.81,279.69 z M868.05,279.69 C868.05,272.75 873.24,267.92 880.03,267.92 C886.82,267.92 891.96,272.74 891.96,279.69 C891.96,286.64 886.66,291.46 880.03,291.46 C873.4,291.46 868.05,286.64 868.05,279.69 L868.05,279.69 z M897.8,240.49 L897.8,246.32 L901.88,246.32 L901.88,206.57 L897.8,206.57 L897.8,223 C895.36,219.24 891.07,216.37 885.34,216.37 C877.07,216.37 869.86,222.89 869.86,231.74 C869.86,240.59 877.07,247.11 885.34,247.11 C891.06,247.11 895.36,244.3 897.8,240.49 L897.8,240.49 z M897.8,231.74 C897.8,238.26 892.92,243.56 886.09,243.56 C879.26,243.56 874.11,238.58 874.11,231.74 C874.11,224.9 879.41,219.92 886.09,219.92 C892.77,219.92 897.8,225.27 897.8,231.74 L897.8,231.74 z M907.04,254.52 L903.01,254.52 L903.01,294.27 L907.04,294.27 L907.04,254.52 L907.04,254.52 z M914.91,257.2 L914.91,258.2 C914.91,259.59 916.04,260.72 917.43,260.72 C918.82,260.72 919.95,259.59 919.95,258.2 L919.95,257.2 C919.95,255.81 918.82,254.68 917.43,254.68 C916.04,254.68 914.91,255.81 914.91,257.2 L914.91,257.2 z M919.46,265.12 L915.43,265.12 L915.43,294.27 L919.46,294.27 L919.46,265.12 L919.46,265.12 z M950.79,257.2 L950.79,258.2 C950.79,259.59 951.92,260.72 953.31,260.72 C954.7,260.72 955.83,259.59 955.83,258.2 L955.83,257.2 C955.83,255.81 954.7,254.68 953.31,254.68 C951.92,254.68 950.79,255.81 950.79,257.2 L950.79,257.2 z M955.33,265.12 L951.3,265.12 L951.3,294.27 L955.33,294.27 L955.33,265.12 L955.33,265.12 z" fill="#000000"/>
  </g>
</svg>
