<?xml version="1.0" encoding="UTF-8"?>
<!DOCTYPE svg PUBLIC "-//W3C//DTD SVG 1.1//EN" "http://www.w3.org/Graphics/SVG/1.1/DTD/svg11.dtd">
<svg version="1.1" xmlns="http://www.w3.org/2000/svg" xmlns:xlink="http://www.w3.org/1999/xlink" x="0" y="0" width="73.701" height="85.068" viewBox="0, 0, 566.93, 654.37">
  <g id="Ebene_1" transform="translate(-14, -93.89)">
    <path d="M580.93,584.44 L580.93,257.71 L297.46,93.89 L14,257.71 L14,584.44 L297.46,748.26 L580.92,584.44 L580.92,584.44 z M281.91,478.6 C282.64,506.89 289.24,558.86 289.24,558.86 C289.24,558.86 308.59,557.08 318.23,561.29 C324.97,564.18 349.51,569.51 358.83,572.61 C368.16,575.71 376.3,582.91 398.11,584.46 C401.35,584.72 448.62,604 452.05,606.39 L464.42,615.4 L298.4,710.45 L107.82,602.88 C118.51,598.54 126.03,595.5 126.03,595.5 C167.6,591.91 149.78,587.24 166.03,580.78 C184.93,573.27 177.46,571.13 185.96,567.92 C195.76,564.24 211.54,558.63 222.04,556.85 C232.54,555.08 250.51,558.96 250.51,558.96 C250.51,558.96 244.01,480.71 250.84,431.22 C259.25,355.95 289.16,299.81 289.16,299.81 C289.16,299.81 265.44,302.89 253.23,313.06 C241.91,321.69 227.7,343.05 227.7,343.05 C227.7,343.05 228.52,324.76 232.03,311.08 C234.37,302.07 242.11,293.22 242.11,293.22 C242.11,293.22 219.86,288.56 198.25,297.51 C176.58,306.47 152.76,336.91 152.76,336.91 C152.76,336.91 154.75,284.07 193.96,260.68 C214.2,248.62 231.71,245.81 243.95,245.91 C238.94,243.12 233.55,240.67 227.98,238.99 C203.54,231.7 167.69,247.46 167.69,247.46 C167.69,247.46 178.36,210.39 230.22,211.67 C244.32,211.01 259.18,216.52 272.09,223.5 C275.04,217.71 278.64,211.88 282.87,207.16 C302.25,185.49 330.21,184.78 330.21,184.78 C330.21,184.78 316.18,196.81 314.43,209.66 C312.68,222.52 315.89,231 315.89,231 C315.89,231 339.01,195.18 369.39,193.68 C405.5,191.9 426.84,216.63 426.84,216.63 C426.84,216.63 413.29,213.23 400.62,214.47 C388.01,215.7 377.75,223.56 377.75,223.56 C377.75,223.56 426.85,224.34 446.25,248.72 C476.48,281.18 458.11,312.5 458.11,312.5 C458.11,312.5 448.17,279.08 429.53,268.19 C410.83,257.35 384.1,258.49 384.1,258.49 C384.1,258.49 442.01,282.35 445.23,331.43 C449.09,390.22 436.12,400.41 436.12,400.41 C436.12,400.41 425.55,339.79 401.47,316.3 C391.81,307.19 378.27,302.44 364.98,300.08 C369.94,306.45 373.93,313.36 376.03,320.65 C393.7,368.3 361.08,389.93 361.08,389.93 C361.08,389.93 365.02,351.72 350.21,331.38 C341.01,318.83 326.67,309.25 317.04,303.75 C313.09,311.32 309.45,321.82 303.94,336.95 C283.53,394.25 280.98,442.06 281.92,478.6 L281.92,478.6 z" fill="#FFFFFF"/>
    <path d="M281.91,478.6 C282.64,506.89 289.24,558.86 289.24,558.86 C289.24,558.86 308.59,557.08 318.23,561.29 C324.97,564.18 349.51,569.51 358.83,572.61 C368.16,575.71 376.3,582.91 398.11,584.46 C401.35,584.72 448.62,604 452.05,606.39 L464.42,615.4 L298.4,710.45 L107.82,602.88 C118.51,598.54 126.03,595.5 126.03,595.5 C167.6,591.91 149.78,587.24 166.03,580.78 C184.93,573.27 177.46,571.13 185.96,567.92 C195.76,564.24 211.54,558.63 222.04,556.85 C232.54,555.08 250.51,558.96 250.51,558.96 C250.51,558.96 244.01,480.71 250.84,431.22 C259.25,355.95 289.16,299.81 289.16,299.81 C289.16,299.81 265.44,302.89 253.23,313.06 C241.91,321.69 227.7,343.05 227.7,343.05 C227.7,343.05 228.52,324.76 232.03,311.08 C234.37,302.07 242.11,293.22 242.11,293.22 C242.11,293.22 219.86,288.56 198.25,297.51 C176.58,306.47 152.76,336.91 152.76,336.91 C152.76,336.91 154.75,284.07 193.96,260.68 C214.2,248.62 231.71,245.81 243.95,245.91 C238.94,243.12 233.55,240.67 227.98,238.99 C203.54,231.7 167.69,247.46 167.69,247.46 C167.69,247.46 178.36,210.39 230.22,211.67 C244.32,211.01 259.18,216.52 272.09,223.5 C275.04,217.71 278.64,211.88 282.87,207.16 C302.25,185.49 330.21,184.78 330.21,184.78 C330.21,184.78 316.18,196.81 314.43,209.66 C312.68,222.52 315.89,231 315.89,231 C315.89,231 339.01,195.18 369.39,193.68 C405.5,191.9 426.84,216.63 426.84,216.63 C426.84,216.63 413.29,213.23 400.62,214.47 C388.01,215.7 377.75,223.56 377.75,223.56 C377.75,223.56 426.85,224.34 446.25,248.72 C476.48,281.18 458.11,312.5 458.11,312.5 C458.11,312.5 448.17,279.08 429.53,268.19 C410.83,257.35 384.1,258.49 384.1,258.49 C384.1,258.49 442.01,282.35 445.23,331.43 C449.09,390.22 436.12,400.41 436.12,400.41 C436.12,400.41 425.55,339.79 401.47,316.3 C391.81,307.19 378.27,302.44 364.98,300.08 C369.94,306.45 373.93,313.36 376.03,320.65 C393.7,368.3 361.08,389.93 361.08,389.93 C361.08,389.93 365.02,351.72 350.21,331.38 C341.01,318.83 326.67,309.25 317.04,303.75 C313.09,311.32 309.45,321.82 303.94,336.95 C283.53,394.25 280.98,442.06 281.92,478.6 L281.92,478.6 z" fill="#E51736"/>
  </g>
</svg>
