<?xml version="1.0" encoding="utf-8"?>
<!-- Generator: Adobe Illustrator 28.2.0, SVG Export Plug-In . SVG Version: 6.00 Build 0)  -->
<svg version="1.1" xmlns="http://www.w3.org/2000/svg" xmlns:xlink="http://www.w3.org/1999/xlink" x="0px" y="0px"
	 viewBox="0 0 104.8 110.6" style="enable-background:new 0 0 104.8 110.6;" xml:space="preserve">
<style type="text/css">
	.st0{clip-path:url(#SVGID_00000099643649025650876800000015234054616721755299_);fill:none;stroke:#FFFFFF;stroke-width:3.52;}
	.st1{clip-path:url(#SVGID_00000099643649025650876800000015234054616721755299_);fill:#FFFFFF;}
</style>
<g id="Ebene_3">
</g>
<g id="Ebene_2_00000130630994062363134010000010144176605947956120_">
	<g>
		<defs>
			<rect id="SVGID_1_" x="8.6" y="11.4" width="88.2" height="87.6"/>
		</defs>
		<clipPath id="SVGID_00000084488236501097290190000016689465089864055946_">
			<use xlink:href="#SVGID_1_"  style="overflow:visible;"/>
		</clipPath>
		
			<path style="clip-path:url(#SVGID_00000084488236501097290190000016689465089864055946_);fill:none;stroke:#FFFFFF;stroke-width:3.52;" d="
			M35,96.6C56.1,101,81.2,86,91,63.2s0.6-44.9-20.5-49.3S24.2,24.4,14.4,47.3S13.8,92.2,35,96.6z"/>
		<path style="clip-path:url(#SVGID_00000084488236501097290190000016689465089864055946_);fill:#FFFFFF;" d="M22.9,78.2
			c5.5-0.4,11.3-4.5,13.4-5.3c2.4-1,3-0.4,4.1-0.8c1.3-0.5,1.8-1.7,3.2-1.9s3,0.3,3,0.3s-0.4-10.2,0.3-16.4
			c0.7-6.1,5.2-13.1,5.2-13.1s-1.6-0.9-3.1-0.2c-1.4,0.7-2.7,2.4-2.7,2.4s-0.1-1.2,0.3-2.7c0.3-1,1.2-2,1.2-2s-2.6-0.8-5.1,0
			c-2.5,0.8-5.3,4.1-5.3,4.1s0.3-6.1,4.9-8.4s8-0.6,8-0.6s0.8-3,2.4-4.6c2.3-2.3,5.6-2.1,5.6-2.1s-1.7,1.2-1.9,2.7
			c-0.2,1.5,0.6,2.1,0.6,2.1s2.3-2.9,5.5-3c4.3-0.2,7,3,7,3s-1.6-0.6-3.1-0.6s-2.4,0.9-2.4,0.9s5.1,0.5,7.4,3.6
			c2.4,3.2,1.7,7.7,1.7,7.7s-1.1-4.2-3.3-5.6c-2.2-1.5-5.3-1.5-5.3-1.5s4.6,2.3,4.6,8c0,5.8-3.1,9.7-3.1,9.7s2-7.9-0.3-10.9
			c-3.3-4.3-9.2-3.4-12.2,1.9c-3.4,6.1-2.8,13.7-2.5,17.4c0.3,3.8,1.7,8.3,1.7,8.3s1.6-0.3,2.9,0.2c0.9,0.4,1.2,1.7,2.5,2.1
			c1.3,0.4,0.8-0.3,3.7-0.1c0.4,0,8.7,4.8,9.2,5.2c-6.8,4.5-21.2,5.1-29,4.6C37.1,82.4,26.1,80.4,22.9,78.2"/>
	</g>
</g>
</svg>
